<svg id="Art" xmlns="http://www.w3.org/2000/svg" width="684.42" height="853.29" viewBox="0 0 684.42 853.29">
  <defs>
    <style>
      .cls-1 {
        fill: #9b8686;
      }

      .cls-2 {
        fill: #a58c89;
      }

      .cls-3 {
        fill: #a58886;
      }

      .cls-4 {
        fill: #776464;
      }

      .cls-5 {
        fill: #ddc8c0;
      }

      .cls-6 {
        fill: #c9b7b1;
      }

      .cls-7 {
        fill: #a28f8c;
      }

      .cls-8 {
        fill: #b8c1bc;
      }

      .cls-9 {
        fill: #a3aaa6;
      }

      .cls-10 {
        fill: #babfbc;
      }

      .cls-11 {
        fill: #8d9390;
      }

      .cls-12 {
        fill: #e2e0d7;
      }

      .cls-13 {
        fill: #e5e2d6;
      }

      .cls-14 {
        fill: #dcd8cc;
      }

      .cls-15 {
        fill: #614f42;
      }

      .cls-16 {
        fill: #c9aaa1;
      }

      .cls-17 {
        fill: #ba9b93;
      }

      .cls-18 {
        fill: #c9aba6;
      }

      .cls-19 {
        fill: #4e1914;
      }

      .cls-20 {
        fill: #2a8742;
      }

      .cls-21 {
        fill: #4bb55c;
      }

      .cls-22 {
        fill: #3a9345;
      }

      .cls-23 {
        fill: #181818;
      }

      .cls-24 {
        fill: #4cbbe3;
      }

      .cls-25 {
        fill: #3897ad;
      }

      .cls-26 {
        fill: #756060;
      }

      .cls-27 {
        fill: #0d2134;
      }

      .cls-28 {
        fill: #379eba;
      }

      .cls-29 {
        fill: #dbc0bd;
      }

      .cls-30 {
        fill: #43aac1;
      }

      .cls-31 {
        fill: #68cce5;
      }

      .cls-32 {
        fill: #2d90a0;
      }

      .cls-33 {
        fill: #083149;
      }

      .cls-34 {
        fill: #0f3e60;
      }

      .cls-35 {
        fill: #15467c;
      }

      .cls-36 {
        fill: #75cdd6;
      }

      .cls-37 {
        fill: #5cb1b5;
      }

      .cls-38 {
        fill: #bcafac;
      }

      .cls-39 {
        fill: #d6c9c4;
      }

      .cls-40 {
        isolation: isolate;
      }

      .cls-41 {
        fill: #5e7475;
      }

      .cls-42 {
        fill: #6e897d;
      }

      .cls-43 {
        fill: #513c3b;
      }
    </style>
  </defs>
  <title>baby_blues</title>
  <polygon id="Wall_right" class="cls-1" points="287.04 318.39 154.69 394.81 153.97 700.46 288.44 624.04 287.04 318.39"/>
  <polygon id="Wall_left" class="cls-2" points="374.69 267.45 507.07 191.03 507.91 496.69 375.56 573.11 374.69 267.45"/>
  <polygon id="Middl_section" class="cls-3" points="287.04 318.39 374.69 267.45 375.53 471.22 287.32 522.16 287.04 318.39"/>
  <g id="Brick_right">
    <g id="Brick_right-2" data-name="Brick_right">
      <polygon class="cls-4" points="196.17 419.94 174.03 431.98 174.34 423.09 196.34 410.33 196.17 419.94"/>
    </g>
    <g id="Brick_right-3" data-name="Brick_right">
      <polygon class="cls-4" points="237.35 508.89 215.2 520.93 215.51 512.05 237.51 499.29 237.35 508.89"/>
    </g>
    <g id="Brick_right-4" data-name="Brick_right">
      <polygon class="cls-4" points="255.28 546.42 233.13 558.46 233.44 549.57 255.44 536.81 255.28 546.42"/>
    </g>
    <g id="Brick_right-5" data-name="Brick_right">
      <polygon class="cls-4" points="226.62 536.65 204.48 548.69 204.79 539.8 226.79 527.04 226.62 536.65"/>
    </g>
    <g id="Brick_right-6" data-name="Brick_right">
      <polygon class="cls-4" points="331.01 370.97 308.87 383.01 309.18 374.12 331.18 361.36 331.01 370.97"/>
    </g>
    <g id="Brick_right-7" data-name="Brick_right">
      <polygon class="cls-4" points="196.17 561.31 174.03 573.35 174.34 564.47 196.34 551.7 196.17 561.31"/>
    </g>
    <g id="Brick_right-8" data-name="Brick_right">
      <polygon class="cls-4" points="250.38 616.46 228.24 628.5 228.55 619.62 250.55 606.85 250.38 616.46"/>
    </g>
    <g id="Brick_right-9" data-name="Brick_right">
      <polygon class="cls-4" points="293.44 527.38 271.3 539.42 271.61 530.53 293.61 517.77 293.44 527.38"/>
    </g>
    <g id="Brick_right-10" data-name="Brick_right">
      <polygon class="cls-4" points="337.06 469.69 314.91 481.73 315.22 472.85 337.23 460.08 337.06 469.69"/>
    </g>
    <g id="Brick_right-11" data-name="Brick_right">
      <polygon class="cls-4" points="354.02 401 331.87 413.04 332.18 404.16 354.19 391.39 354.02 401"/>
    </g>
    <g id="Brick_right-12" data-name="Brick_right">
      <polygon class="cls-4" points="315.85 401 293.71 413.04 294.02 404.16 316.02 391.39 315.85 401"/>
    </g>
    <g id="Brick_right-13" data-name="Brick_right">
      <polygon class="cls-4" points="443.65 423.36 421.51 435.4 421.82 426.52 443.82 413.75 443.65 423.36"/>
    </g>
    <g id="Brick_right-14" data-name="Brick_right">
      <polygon class="cls-4" points="412.43 451.77 390.29 463.81 390.6 454.92 412.6 442.16 412.43 451.77"/>
    </g>
    <g id="Brick_right-15" data-name="Brick_right">
      <polygon class="cls-4" points="443.65 490.34 421.51 502.38 421.82 493.49 443.82 480.73 443.65 490.34"/>
    </g>
    <g id="Brick_right-16" data-name="Brick_right">
      <polygon class="cls-4" points="480.11 344.65 457.96 356.69 458.27 347.8 480.27 335.04 480.11 344.65"/>
    </g>
    <g id="Brick_right-17" data-name="Brick_right">
      <polygon class="cls-4" points="423.59 310.12 401.44 322.16 401.75 313.27 423.76 300.51 423.59 310.12"/>
    </g>
    <g id="Brick_right-18" data-name="Brick_right">
      <polygon class="cls-4" points="491.26 384.16 469.12 396.2 469.43 387.32 491.43 374.55 491.26 384.16"/>
    </g>
    <g id="Brick_right-19" data-name="Brick_right">
      <polygon class="cls-4" points="489.77 250.5 467.63 262.54 467.94 253.65 489.94 240.89 489.77 250.5"/>
    </g>
    <g id="Brick_right-20" data-name="Brick_right">
      <polygon class="cls-4" points="473.74 315.62 451.59 327.66 451.9 318.77 473.9 306.01 473.74 315.62"/>
    </g>
    <g id="Brick_right-21" data-name="Brick_right">
      <polygon class="cls-4" points="370.18 321.18 348.03 333.21 348.34 324.33 370.35 311.56 370.18 321.18"/>
    </g>
    <g id="Brick_right-22" data-name="Brick_right">
      <polygon class="cls-4" points="266.9 430.76 244.75 442.8 245.06 433.92 267.07 421.15 266.9 430.76"/>
    </g>
    <g id="Brick_right-23" data-name="Brick_right">
      <polygon class="cls-4" points="271.31 374.51 249.17 386.55 249.48 377.67 271.48 364.9 271.31 374.51"/>
    </g>
    <g id="Brick_right-24" data-name="Brick_right">
      <polygon class="cls-4" points="183.94 499.57 161.79 511.61 162.1 502.73 184.11 489.96 183.94 499.57"/>
    </g>
    <g id="Brick_right-25" data-name="Brick_right">
      <polygon class="cls-4" points="381.33 544 359.19 556.04 359.5 547.15 381.5 534.39 381.33 544"/>
    </g>
    <g id="Brick_right-26" data-name="Brick_right">
      <polygon class="cls-4" points="462.58 516.56 440.43 528.6 440.74 519.71 462.75 506.95 462.58 516.56"/>
    </g>
    <g id="Brick_right-27" data-name="Brick_right">
      <polygon class="cls-4" points="438.35 376.8 416.2 388.84 416.51 379.96 438.52 367.19 438.35 376.8"/>
    </g>
  </g>
  <g id="Base_layer">
    <polygon class="cls-5" points="153.97 700.46 288.44 624.04 310.5 636.78 154.41 725.94 153.97 700.46"/>
    <polygon class="cls-6" points="154.41 725.94 154.41 751.42 132.35 738.68 132.35 713.21 154.41 725.94"/>
    <polygon class="cls-7" points="310.5 636.78 310.5 662.26 154.41 751.42 154.41 725.94 310.5 636.78"/>
  </g>
  <g id="Stair">
    <polygon class="cls-8" points="288.44 624.04 331.44 598.58 353.5 611.31 310.5 636.78 288.44 624.04"/>
    <polyline class="cls-9" points="353.5 611.31 353.5 636.78 310.5 662.26 310.5 636.78"/>
    <polygon class="cls-10" points="310.5 662.26 331.44 674.99 375.56 649.52 353.5 636.78 310.5 662.26"/>
    <polygon class="cls-9" points="331.44 674.99 331.44 700.46 375.56 674.99 375.56 649.52 331.44 674.99"/>
    <polygon class="cls-11" points="331.44 700.46 287.32 674.99 310.5 662.26 331.44 674.99 331.44 700.46"/>
  </g>
  <g id="Walkway">
    <polygon class="cls-12" points="331.44 700.46 419.68 649.52 463.79 674.99 375.56 725.93 331.44 700.46"/>
    <polygon class="cls-13" points="375.56 725.95 463.79 675.01 507.91 700.48 419.68 751.42 375.56 725.95"/>
    <polygon class="cls-14" points="419.68 751.4 507.91 700.46 552.03 725.93 463.79 776.88 419.68 751.4"/>
  </g>
  <polygon class="cls-15" points="508.43 547.64 684.42 649.52 552.07 725.93 375.52 624.07 508.43 547.64"/>
  <g id="Stair_2">
    <polygon class="cls-16" points="331.44 598.58 375.56 573.11 397.62 585.84 353.5 611.31 331.44 598.58"/>
    <polygon class="cls-17" points="397.62 585.84 397.62 611.31 353.5 636.78 353.5 611.31 397.62 585.84"/>
    <polygon class="cls-18" points="353.5 636.78 375.56 649.52 419.68 624.04 397.62 611.31 353.5 636.78"/>
    <polygon class="cls-17" points="375.56 649.52 375.53 675.01 419.68 649.52 419.68 624.04 375.56 649.52"/>
  </g>
  <g id="Base_layer_2">
    <polygon class="cls-5" points="375.56 573.11 507.91 496.69 529.97 509.43 397.62 585.84 375.56 573.11"/>
    <polygon class="cls-7" points="529.97 509.43 529.97 534.9 397.62 611.31 397.62 585.84 529.97 509.43"/>
  </g>
  <g id="Doors">
    <polygon id="Door_1" class="cls-19" points="288.44 624.04 287.32 522.16 331.44 496.69 331.44 598.58 288.44 624.04"/>
    <polygon id="Door_2" class="cls-19" points="331.44 496.69 375.53 471.22 375.56 573.11 331.44 598.58 331.44 496.69"/>
  </g>
  <g id="Flowers">
    <g id="Flower_1">
      <polygon class="cls-20" points="183.05 658.63 183.05 647.35 214.57 629.42 215.13 640.7 183.05 658.63"/>
      <polygon class="cls-21" points="214.57 629.42 201.83 622.18 170.31 640.11 183.05 647.35 214.57 629.42"/>
      <polygon class="cls-22" points="170.31 640.11 170.31 651.38 183.05 658.63 183.05 647.35 170.31 640.11"/>
    </g>
    <g id="Flower_1-2" data-name="Flower_1">
      <polygon class="cls-20" points="250.94 618.5 250.94 607.22 282.45 589.3 283.01 600.57 250.94 618.5"/>
      <polygon class="cls-21" points="282.45 589.3 269.72 582.05 238.2 599.98 250.94 607.22 282.45 589.3"/>
      <polygon class="cls-22" points="238.2 599.98 238.2 611.26 250.94 618.5 250.94 607.22 238.2 599.98"/>
    </g>
    <g id="Flower_1-3" data-name="Flower_1">
      <polygon class="cls-20" points="408.58 524.65 408.58 513.37 440.1 495.45 440.66 506.72 408.58 524.65"/>
      <polygon class="cls-21" points="440.1 495.45 427.36 488.2 395.84 506.13 408.58 513.37 440.1 495.45"/>
      <polygon class="cls-22" points="395.84 506.13 395.84 517.41 408.58 524.65 408.58 513.37 395.84 506.13"/>
    </g>
    <g id="Flower_1-4" data-name="Flower_1">
      <polygon class="cls-20" points="475.76 482.18 475.76 470.91 507.28 452.98 507.84 464.26 475.76 482.18"/>
      <polygon class="cls-21" points="507.28 452.98 494.55 445.74 463.02 463.67 475.76 470.91 507.28 452.98"/>
      <polygon class="cls-22" points="463.02 463.67 463.02 474.94 475.76 482.18 475.76 470.91 463.02 463.67"/>
    </g>
  </g>
  <g id="Windows">
    <polygon class="cls-23" points="170.31 640.11 170.31 598.58 201.83 582.05 201.83 622.18 170.31 640.11"/>
    <polygon class="cls-23" points="238.2 599.98 238.2 557.79 269.72 541.27 269.72 582.05 238.2 599.98"/>
    <polygon class="cls-23" points="395.84 506.21 395.84 464.68 427.36 448.16 427.36 488.28 395.84 506.21"/>
    <polygon class="cls-23" points="463.02 463.67 463.02 422.13 494.55 405.61 494.55 445.74 463.02 463.67"/>
  </g>
  <g id="Awnings">
    <g id="Awning_1">
      <polygon class="cls-24" points="170.31 598.58 201.83 582.05 215.13 603.9 183.05 619.99 170.31 598.58"/>
      <polygon class="cls-25" points="170.31 598.58 170.31 619.99 183.05 619.99 170.31 598.58"/>
    </g>
    <g id="Awning_1-2" data-name="Awning_1">
      <polygon class="cls-24" points="237.92 557.92 269.44 541.4 282.73 563.24 250.66 579.34 237.92 557.92"/>
      <polygon class="cls-25" points="237.92 557.92 237.92 579.34 250.66 579.34 237.92 557.92"/>
    </g>
    <g id="Awning_1-3" data-name="Awning_1">
      <polygon class="cls-24" points="395.56 464.68 427.08 448.16 440.38 470 408.3 486.09 395.56 464.68"/>
      <polygon class="cls-25" points="395.56 464.68 395.56 486.09 408.3 486.09 395.56 464.68"/>
    </g>
    <g id="Awning_1-4" data-name="Awning_1">
      <polygon class="cls-24" points="462.75 422.13 494.26 405.61 507.56 427.45 475.49 443.55 462.75 422.13"/>
      <polygon class="cls-25" points="462.75 422.13 462.75 443.55 475.49 443.55 462.75 422.13"/>
    </g>
  </g>
  <g id="Windows-2" data-name="Windows">
    <polygon class="cls-23" points="170.31 502.94 170.31 461.4 201.83 444.88 201.83 485.01 170.31 502.94"/>
    <polygon class="cls-23" points="260.32 455.16 260.32 413.63 291.85 397.11 291.85 437.23 260.32 455.16"/>
    <polygon class="cls-23" points="368.06 396.2 368.06 354.67 399.58 338.15 399.58 378.27 368.06 396.2"/>
    <polygon class="cls-23" points="463.02 345.86 463.02 304.33 494.55 287.81 494.55 327.93 463.02 345.86"/>
  </g>
  <g id="Awnings-2" data-name="Awnings">
    <g id="Awning_1-5" data-name="Awning_1">
      <line class="cls-25" x1="170.31" y1="461.4" x2="170.31" y2="482.81"/>
    </g>
    <g id="Awning_1-6" data-name="Awning_1">
      <polygon class="cls-24" points="260.05 413.76 291.57 397.24 304.86 419.08 272.79 435.17 260.05 413.76"/>
      <polygon class="cls-25" points="260.05 413.76 260.05 435.17 272.79 435.17 260.05 413.76"/>
    </g>
    <g id="Awning_1-7" data-name="Awning_1">
      <polygon class="cls-24" points="367.78 354.67 399.3 338.15 412.6 359.99 380.52 376.08 367.78 354.67"/>
      <polygon class="cls-25" points="367.78 354.67 367.78 376.08 380.52 376.08 367.78 354.67"/>
    </g>
    <g id="Awning_1-8" data-name="Awning_1">
      <polygon class="cls-24" points="462.75 304.33 494.26 287.81 507.56 309.65 475.49 325.74 462.75 304.33"/>
      <polygon class="cls-25" points="462.75 304.33 462.75 325.74 475.49 325.74 462.75 304.33"/>
    </g>
  </g>
  <polyline class="cls-26" points="154.41 751.42 0 662.25 0 305.77 154.69 393.81"/>
  <g id="Sign">
    <polygon class="cls-27" points="258.21 504.06 258.21 477.47 409.83 396.6 410.39 423.19 258.21 504.06"/>
    <polygon class="cls-28" points="409.83 396.6 405.23 393.94 253.61 474.81 258.21 477.47 409.83 396.6"/>
    <polygon class="cls-28" points="253.61 474.81 253.61 501.39 258.21 504.06 258.21 477.47 253.61 474.81"/>
  </g>
  <polygon class="cls-29" points="0 305.66 353.5 101.89 507.35 191.03 154.41 394.81 0 305.66"/>
  <g id="Top_block">
    <polygon class="cls-30" points="167.6 410.07 167.6 400.54 520.06 197.21 520.62 206.71 167.6 410.07"/>
    <polygon class="cls-31" points="520.06 197.21 507.28 191.03 154.82 394.37 167.6 400.54 520.06 197.21"/>
    <polygon class="cls-32" points="154.82 394.37 154.82 403.89 167.6 410.07 167.6 400.54 154.82 394.37"/>
  </g>
  <g id="Top_roof">
    <polygon class="cls-33" points="154.82 395.37 132.76 267.45 0 203.77 0 305.66 154.82 395.37"/>
    <polygon class="cls-34" points="154.82 394.37 507.28 191.03 478.79 72.64 132.76 267.45 154.82 394.37"/>
    <polygon class="cls-35" points="0 203.77 353.35 0 478.79 72.64 132.76 267.45 0 203.77"/>
  </g>
  <g id="Middle_roof_section">
    <polygon class="cls-36" points="339.74 287.81 304.86 170.56 291.85 178.3 325.7 295.79 339.74 287.81"/>
    <polygon class="cls-37" points="289.09 179.44 322.88 297 325.7 295.79 291.85 178.3 289.09 179.44"/>
  </g>
  <g id="Windows-3" data-name="Windows">
    <polygon class="cls-23" points="170.31 350.42 170.31 308.89 201.83 292.37 201.83 332.5 170.31 350.42"/>
    <polygon class="cls-23" points="238.2 309.63 238.2 268.1 269.72 251.58 269.72 291.71 238.2 309.63"/>
    <polygon class="cls-23" points="395.84 216.53 395.84 174.99 427.36 158.47 427.36 198.6 395.84 216.53"/>
    <polygon class="cls-23" points="463.02 173.98 463.02 132.45 494.55 115.92 494.55 156.05 463.02 173.98"/>
  </g>
  <g id="Awnings-3" data-name="Awnings">
    <g id="Awning_1-9" data-name="Awning_1">
      <polygon class="cls-24" points="170.31 308.89 201.83 292.37 215.13 314.21 183.05 330.3 170.31 308.89"/>
      <polygon class="cls-25" points="170.31 308.89 170.31 330.3 183.05 330.3 170.31 308.89"/>
    </g>
    <g id="Awning_1-10" data-name="Awning_1">
      <polygon class="cls-24" points="237.92 268.24 269.44 251.71 282.73 273.56 250.66 289.65 237.92 268.24"/>
      <polygon class="cls-25" points="237.92 268.24 237.92 289.65 250.66 289.65 237.92 268.24"/>
    </g>
    <g id="Awning_1-11" data-name="Awning_1">
      <polygon class="cls-24" points="395.56 174.99 427.08 158.47 440.38 180.31 408.3 196.4 395.56 174.99"/>
      <polygon class="cls-25" points="395.56 174.99 395.56 196.4 408.3 196.4 395.56 174.99"/>
    </g>
    <g id="Awning_1-12" data-name="Awning_1">
      <polygon class="cls-24" points="462.75 132.45 494.26 115.92 507.56 137.77 475.49 153.86 462.75 132.45"/>
      <polygon class="cls-25" points="462.75 132.45 462.75 153.86 475.49 153.86 462.75 132.45"/>
    </g>
  </g>
  <path class="cls-24" d="M533.73,287.71" transform="translate(-341.02 -23.85)"/>
  <polygon class="cls-38" points="287.32 522.16 304.86 553.52 287.67 553.52 287.32 522.16"/>
  <polygon class="cls-39" points="287.32 522.16 304.86 553.52 386.92 510.05 375.53 471.22 287.32 522.16"/>
  <polygon class="cls-15" points="287.32 674.99 463.31 776.88 330.95 853.29 154.41 751.42 287.32 674.99"/>
  <g id="Fence">
    <g class="cls-40">
      <path class="cls-41" d="M545.31,723.82a.57.57,0,0,1,0,.13s0,.08,0,.11a.59.59,0,0,1,0,.13s0,.08,0,.12a.57.57,0,0,1,0,.12l0,.12,0,.11a.36.36,0,0,1,0,.11l0,.12,0,.11a.56.56,0,0,0,0,.12s0,.07,0,.11l-.06.15a.25.25,0,0,0,0,.09.8.8,0,0,0-.08.16l0,.08a.06.06,0,0,0,0,0,1.3,1.3,0,0,1-.1.15l0,0a.71.71,0,0,1-.12.18l0,0a.73.73,0,0,1-.1.13.39.39,0,0,1-.08.1l-.07.11a.43.43,0,0,0-.09.1l-.09.09-.09.1-.09.09-.11.09-.13.11a2.65,2.65,0,0,1-.26.21l-.07.05-.21.14s0,0-.07,0l-.29.17,0,0-.24.13-.11,0a.59.59,0,0,1-.14.06l-.12.06-.14,0-.12,0-.15,0-.12,0-.15,0a.2.2,0,0,1-.11,0l-.32.07s0,0,0,0l-.29,0h-.11l-.19,0h-.3a.18.18,0,0,0-.1,0h-.56a.47.47,0,0,1-.16,0H539a.22.22,0,0,1-.11,0l-.2,0h-.07a2.14,2.14,0,0,1-.27-.06h0l-.23,0-.1,0a.85.85,0,0,1-.17-.06l-.09,0-.2-.06-.1,0-.17-.07-.1,0-.27-.12,0,0-.31-.16a.5.5,0,0,0-.12-.08l-.09,0-.13-.09-.09-.07a.71.71,0,0,1-.14-.1s0,0-.07,0l-.21-.16a4.51,4.51,0,0,1-1.67-3.45l0,66.16a4.53,4.53,0,0,0,1.68,3.45l.21.16.06,0,.14.1.09.07.13.09.1.06.08,0,0,0,.3.16s0,0,0,0a1.69,1.69,0,0,0,.27.12s0,0,0,0l0,0a1,1,0,0,0,.18.06l.1,0,.19.06.07,0h0l.17,0,.1,0a.86.86,0,0,0,.23.05,0,0,0,0,1,0,0h0l.26,0h.07a1.38,1.38,0,0,0,.2,0h.28a.2.2,0,0,1,.11,0h1l.11,0,.18,0s0,0,.06,0h.05a1.37,1.37,0,0,0,.28,0h.05l.32-.08h0l.08,0,.15,0,.12,0,.15,0,.12,0,.14-.05.12-.06a.84.84,0,0,0,.14-.06l.06,0,0,0,.25-.13.05,0,.29-.17a.15.15,0,0,0,.07,0l.2-.14.08-.05.26-.21a.2.2,0,0,0,.07-.06.17.17,0,0,0,.06-.06l.11-.11a.34.34,0,0,0,.08-.09.94.94,0,0,0,.1-.1l.09-.09s.06-.06.08-.1a.27.27,0,0,0,.08-.1l.08-.1,0,0a.35.35,0,0,0,.06-.09l0,0,.12-.18,0,0,.09-.15a.05.05,0,0,0,0,0h0a.33.33,0,0,1,0-.06c0-.06.05-.11.07-.17l0-.09.06-.15,0,0s0,0,0-.06,0-.09,0-.13l0-.1,0-.13a.07.07,0,0,1,0,0,.43.43,0,0,1,0-.05l0-.12,0-.11a.51.51,0,0,0,0-.13s0,0,0-.07a0,0,0,0,1,0,0s0-.09,0-.13,0-.08,0-.12v-.28l0-66.16A.47.47,0,0,1,545.31,723.82Z" transform="translate(-341.02 -23.85)"/>
      <path class="cls-42" d="M543.64,720.23a4.36,4.36,0,0,1,0,6.85,6.38,6.38,0,0,1-8,0,4.35,4.35,0,0,1,0-6.83A6.37,6.37,0,0,1,543.64,720.23Z" transform="translate(-341.02 -23.85)"/>
    </g>
    <g class="cls-40">
      <path class="cls-41" d="M573.06,740.54a.57.57,0,0,1,0,.13s0,.08,0,.12a.53.53,0,0,1,0,.12s0,.08,0,.12,0,.07,0,.13l0,.11,0,.12,0,.1a.61.61,0,0,1,0,.13l0,.1a.65.65,0,0,1,0,.13l0,.1a.94.94,0,0,0-.06.15l-.05.09-.08.17a.21.21,0,0,1,0,.07l0,0a1.19,1.19,0,0,1-.09.15l0,0a.81.81,0,0,1-.12.18l0,0a.62.62,0,0,1-.09.12l-.08.11-.08.1s-.06.06-.09.1l-.08.09-.1.1-.08.09a.44.44,0,0,1-.11.09l-.13.12-.26.2a.18.18,0,0,1-.08,0l-.21.14-.07.05a2.09,2.09,0,0,1-.28.17l0,0-.25.13-.1.05-.14.07-.12.05-.14,0-.12,0-.15.05-.12,0-.15,0a.23.23,0,0,1-.11,0l-.32.08h0l-.28.05h-.12l-.18,0h-.3a.22.22,0,0,0-.11,0h-.55a.5.5,0,0,1-.17,0h-.39l-.21,0h-.07l-.27-.05,0,0-.23,0-.1,0-.17-.05a.19.19,0,0,0-.1,0l-.19-.06-.1,0-.18-.07-.09,0a2.24,2.24,0,0,1-.27-.13s0,0-.05,0l-.3-.16-.12-.08-.1,0-.13-.09s-.06,0-.08-.06l-.14-.11a.18.18,0,0,1-.07-.05l-.21-.16a4.52,4.52,0,0,1-1.68-3.45l0,66.16a4.52,4.52,0,0,0,1.67,3.45l.21.16s0,0,.07,0l.14.11.09.06.13.09.09.06.09,0,0,0,.3.16,0,0,.27.13.05,0,0,0a1.15,1.15,0,0,0,.17.06l.11,0,.19.06s0,0,.07,0h0l.18,0,.09,0,.24.05h0l.27,0h.06l.21,0h.28a.22.22,0,0,1,.11,0h1l.12,0,.18,0h.06s0,0,0,0a1.47,1.47,0,0,0,.29,0h0l.33-.08h0l.09,0,.15,0,.12,0,.14,0,.13,0,.14,0a.43.43,0,0,1,.12,0l.14-.07.06,0s0,0,0,0a1.36,1.36,0,0,0,.24-.13l.06,0,.28-.17a.12.12,0,0,0,.07,0l.21-.14.08-.05.26-.2a.46.46,0,0,1,.07-.07l.06-.06.1-.1s.06-.07.09-.09l.1-.11.08-.09.09-.1a.44.44,0,0,0,.08-.1.7.7,0,0,1,.08-.1l0,0a.47.47,0,0,0,.06-.09l0,0,.12-.18,0,0,.1-.16a.05.05,0,0,0,0,0h0a.14.14,0,0,1,0-.06,1.38,1.38,0,0,0,.08-.17.25.25,0,0,0,0-.09.94.94,0,0,0,.06-.15l0,0s0,0,0-.06a.65.65,0,0,0,0-.13s0-.06,0-.1l0-.13s0,0,0-.05v0l0-.12,0-.11a.51.51,0,0,0,0-.13s0,0,0-.06,0,0,0,0a.57.57,0,0,1,0-.13s0-.08,0-.12,0-.08,0-.12v-.16l0-66.16A.31.31,0,0,1,573.06,740.54Z" transform="translate(-341.02 -23.85)"/>
      <path class="cls-42" d="M571.39,737a4.34,4.34,0,0,1,0,6.84,6.38,6.38,0,0,1-8,0,4.33,4.33,0,0,1,0-6.83A6.37,6.37,0,0,1,571.39,737Z" transform="translate(-341.02 -23.85)"/>
    </g>
    <g class="cls-40">
      <path class="cls-41" d="M600.45,755.09a.57.57,0,0,1,0,.13v.11a.59.59,0,0,1,0,.13s0,.08,0,.12,0,.07,0,.13l0,.11,0,.11a.52.52,0,0,0,0,.11s0,.09,0,.12a.61.61,0,0,0,0,.11s0,.09,0,.12l0,.11a.94.94,0,0,0-.06.15l-.05.09a1.47,1.47,0,0,0-.07.17l0,.07s0,0,0,0a1.19,1.19,0,0,1-.09.15l0,0a.81.81,0,0,1-.12.18l0,0a.62.62,0,0,1-.09.12l-.08.11-.08.1s-.06.06-.08.1l-.09.09-.1.1-.08.09-.11.09-.13.11a2.39,2.39,0,0,1-.26.21l-.08.05-.21.14-.07,0a2.09,2.09,0,0,1-.28.17l0,0-.25.13-.1,0-.14.07-.12,0-.14.05-.12,0-.15,0-.12,0-.15,0a.23.23,0,0,1-.11,0l-.32.08h0l-.28,0h-.12l-.18,0h-.3a.22.22,0,0,0-.11,0h-.55a.52.52,0,0,1-.17,0H594l-.21,0h-.07l-.27,0,0,0-.23-.05-.1,0-.17,0a.19.19,0,0,0-.1,0,1.39,1.39,0,0,0-.19-.06l-.1,0-.18-.07-.09,0-.27-.13s0,0,0,0l-.31-.16-.12-.08s-.06,0-.1-.05l-.13-.09s-.06,0-.08-.06l-.14-.11a.18.18,0,0,1-.07,0l-.21-.16a4.52,4.52,0,0,1-1.68-3.45l0,66.16a4.52,4.52,0,0,0,1.67,3.45l.21.16.07,0,.14.11a.47.47,0,0,1,.09.06l.13.09.09.06.09,0,0,0,.3.16,0,0,.27.13,0,0,0,0a1.15,1.15,0,0,0,.17.06l.11,0,.19.06s0,0,.07,0h0l.18,0,.09,0,.24.06h0l.27,0h.06l.21,0h.28a.22.22,0,0,1,.11,0h1l.11,0,.18,0h.06s0,0,0,0a1.35,1.35,0,0,0,.29-.05h0l.33-.08h0l.09,0,.15,0,.12,0,.15-.05.12,0,.14-.05a.43.43,0,0,1,.12,0l.14-.07.06,0s0,0,0,0a1.36,1.36,0,0,0,.24-.13l.06,0,.28-.17a.12.12,0,0,0,.07-.05l.21-.14.08,0c.09-.06.17-.14.26-.21l.07-.06.06-.06.1-.1.09-.09.1-.11.08-.09.09-.1a.44.44,0,0,0,.08-.1.7.7,0,0,1,.08-.1l0,0a.47.47,0,0,0,.06-.09l0,0,.12-.18,0,0,.09-.15a.05.05,0,0,0,0,0h0s0,0,0-.06a.89.89,0,0,0,.08-.17.25.25,0,0,0,0-.09l.07-.15a.06.06,0,0,1,0,0s0,0,0-.06a.65.65,0,0,0,0-.13,1,1,0,0,1,0-.1l0-.13s0,0,0,0a.43.43,0,0,1,0-.05l0-.12,0-.11a.51.51,0,0,0,0-.13s0,0,0-.06,0,0,0,0a.57.57,0,0,1,0-.13s0-.08,0-.12,0-.08,0-.12v-.16l0-66.16A.31.31,0,0,1,600.45,755.09Z" transform="translate(-341.02 -23.85)"/>
      <path class="cls-42" d="M598.79,751.51a4.34,4.34,0,0,1,0,6.84,6.38,6.38,0,0,1-8,0,4.34,4.34,0,0,1,0-6.83A6.38,6.38,0,0,1,598.79,751.51Z" transform="translate(-341.02 -23.85)"/>
    </g>
    <g class="cls-40">
      <path class="cls-41" d="M678.42,799.67a.45.45,0,0,1,0,.12v.12a.59.59,0,0,1,0,.13s0,.07,0,.11,0,.08,0,.13l0,.11,0,.12a.58.58,0,0,0,0,.1l0,.13a.93.93,0,0,0,0,.1s0,.09-.05.13l0,.1a.94.94,0,0,0-.06.15.73.73,0,0,1-.05.09c0,.05,0,.11-.07.17l0,.08,0,0a.83.83,0,0,1-.09.16l0,0a1,1,0,0,1-.12.17l0,0-.09.13-.08.1-.08.1a.87.87,0,0,1-.08.1l-.09.09-.1.11-.08.09-.11.08-.13.12a1.64,1.64,0,0,1-.26.2.14.14,0,0,1-.08,0l-.21.15a.15.15,0,0,0-.06.05l-.29.16,0,0-.25.13-.1.05a.84.84,0,0,0-.14.06l-.12.05-.14,0-.12,0-.15.05-.12,0-.15,0-.11,0-.32.08h-.05l-.28.05-.12,0-.18,0-.11,0h-1.13l-.17,0H672l-.21,0h-.07a1.19,1.19,0,0,1-.26-.05h0l-.23,0-.1,0a.48.48,0,0,1-.17-.05s-.06,0-.1,0a1.39,1.39,0,0,1-.19-.06l-.1,0-.18-.06-.09,0-.27-.13,0,0a2.38,2.38,0,0,1-.31-.17l-.12-.08-.1,0-.13-.09s-.06,0-.08-.06a1.7,1.7,0,0,1-.14-.1s0,0-.07-.05a1.57,1.57,0,0,1-.21-.17,4.49,4.49,0,0,1-1.68-3.45l0,66.16a4.51,4.51,0,0,0,1.67,3.45l.21.17s.05,0,.07,0a1.7,1.7,0,0,1,.14.1l.09.06.13.09.09.07.09,0h0l.3.17s0,0,0,0l.27.13.05,0,0,0,.17.07.11,0,.19.07.07,0h0l.18,0,.09,0,.24.05h0l.27,0s0,0,.06,0l.21,0h0a.18.18,0,0,1,.1,0h1.43a1.13,1.13,0,0,0,.18,0h.11l.28,0a.06.06,0,0,0,0,0l.32-.07,0,0,.09,0,.15,0,.12,0,.15,0,.12,0,.14,0,.12,0a.59.59,0,0,1,.14-.06s0,0,.06,0l0,0a1.36,1.36,0,0,0,.24-.13l.06,0,.28-.16s.06,0,.07,0l.21-.15.08-.05.26-.2.07-.06.06-.07.1-.1.09-.09.1-.1.08-.09.09-.1a1,1,0,0,0,.08-.11l.08-.1,0,0s0-.06.06-.09l0,0,.12-.18,0,0,.09-.15s0,0,0,0h0l0-.07a.8.8,0,0,0,.08-.16.73.73,0,0,1,0-.09,1,1,0,0,1,.06-.16.08.08,0,0,1,0,0,.11.11,0,0,0,0-.06.65.65,0,0,0,0-.13s0-.06,0-.1l0-.13s0,0,0-.05v0l0-.11,0-.12a.51.51,0,0,0,0-.13s0,0,0-.06a.06.06,0,0,1,0,0,.57.57,0,0,0,0-.13s0-.07,0-.11,0-.09,0-.13v-.15l0-66.16A.31.31,0,0,1,678.42,799.67Z" transform="translate(-341.02 -23.85)"/>
      <path class="cls-42" d="M676.76,796.08a4.34,4.34,0,0,1,0,6.84,6.38,6.38,0,0,1-8,0,4.34,4.34,0,0,1,0-6.83A6.38,6.38,0,0,1,676.76,796.08Z" transform="translate(-341.02 -23.85)"/>
    </g>
    <g class="cls-40">
      <path class="cls-41" d="M705.9,783.94a.57.57,0,0,1,0,.13s0,.07,0,.11a.59.59,0,0,1,0,.13s0,.08,0,.11a.53.53,0,0,0,0,.13l0,.12,0,.11a.25.25,0,0,1,0,.1l0,.13a.62.62,0,0,1,0,.1s0,.09,0,.13a.29.29,0,0,1,0,.1l-.06.16a.25.25,0,0,0,0,.09.8.8,0,0,0-.08.16s0,0,0,.08,0,0,0,0l-.1.15,0,0a.71.71,0,0,1-.12.18l0,0a1.47,1.47,0,0,1-.1.13l-.08.1a.39.39,0,0,1-.08.1s-.06.07-.08.11,0,.06-.09.09l-.09.1a.38.38,0,0,0-.09.09l-.11.09-.13.11a2.65,2.65,0,0,1-.26.21l-.07.05-.21.14a.21.21,0,0,0-.07,0l-.29.16-.05,0-.24.13-.11,0-.14.06-.12.05-.14,0-.12,0-.15,0-.12,0-.15,0a.35.35,0,0,1-.11,0l-.32.07s0,0,0,0l-.29,0h-.11a1.25,1.25,0,0,0-.19,0h-1.41a.22.22,0,0,1-.11,0l-.2,0a.08.08,0,0,1-.07,0,1.17,1.17,0,0,1-.27-.05h0l-.23,0-.1,0a.48.48,0,0,1-.17-.05l-.1,0-.19-.07-.1,0-.17-.06-.1,0-.27-.12,0,0a2.38,2.38,0,0,1-.31-.17l-.12-.07-.09,0-.13-.09-.09-.07a1.7,1.7,0,0,1-.14-.1s0,0-.07-.05a1.57,1.57,0,0,1-.21-.17,4.47,4.47,0,0,1-1.67-3.44l0,66.16a4.5,4.5,0,0,0,1.68,3.44l.2.17s.05,0,.07,0a1.7,1.7,0,0,1,.14.1l.09.07.13.09.1.06.08,0h0l.3.17,0,0,.27.13s0,0,0,0l0,0,.17.07.11,0a1.39,1.39,0,0,1,.19.06l.07,0h0l.17,0,.1,0a.86.86,0,0,0,.23.05,0,0,0,0,1,0,0h0l.26,0h.07l.2,0h0a.18.18,0,0,1,.1,0h.28l.17,0h.68l.19,0h.11l.18,0h.11l.28,0h0l.32-.08h0l.09,0,.15,0,.12,0,.15,0,.12,0,.14-.05.12,0,.14-.06.06,0,0,0,.25-.13,0,0,.29-.16a.15.15,0,0,0,.06,0l.21-.14.08-.05.26-.21.07-.06a.22.22,0,0,0,.06-.07.5.5,0,0,0,.11-.1.34.34,0,0,0,.08-.09l.1-.1.09-.09s.06-.06.08-.1l.08-.1.08-.11,0,0a.35.35,0,0,0,.06-.09l0,0,.12-.18,0,0,.09-.15a.08.08,0,0,0,0,0h0l0-.07s0-.1.07-.16a.73.73,0,0,1,0-.09.94.94,0,0,1,.06-.15l0,0s0,0,0-.07,0-.09,0-.12a.45.45,0,0,1,0-.11s0-.09,0-.12a.13.13,0,0,1,0-.06.43.43,0,0,0,0-.05l0-.11,0-.12a.37.37,0,0,0,0-.12s0,0,0-.07a.08.08,0,0,1,0,0s0-.09,0-.12v-.12s0-.09,0-.13v-.15l0-66.16A.47.47,0,0,1,705.9,783.94Z" transform="translate(-341.02 -23.85)"/>
      <path class="cls-42" d="M704.23,780.35a4.34,4.34,0,0,1,0,6.84,6.38,6.38,0,0,1-8,0,4.35,4.35,0,0,1,0-6.83A6.38,6.38,0,0,1,704.23,780.35Z" transform="translate(-341.02 -23.85)"/>
    </g>
    <g class="cls-40">
      <path class="cls-41" d="M730.57,769.83a.57.57,0,0,1,0,.13s0,.07,0,.11a.59.59,0,0,1,0,.13s0,.07,0,.11a.53.53,0,0,0,0,.13l0,.12,0,.11a.87.87,0,0,1,0,.1l0,.13a.62.62,0,0,1,0,.1s0,.09-.05.13,0,.06,0,.1l-.06.16a.3.3,0,0,0,0,.08,1.3,1.3,0,0,0-.08.17l0,.08s0,0,0,0l-.1.15,0,0a.94.94,0,0,1-.12.18l0,0a1.47,1.47,0,0,1-.1.13l-.08.1a.39.39,0,0,1-.08.1s-.06.07-.08.11,0,.06-.09.08l-.09.11-.09.09-.11.09-.13.11a1.64,1.64,0,0,1-.26.2s0,0-.07.06l-.21.14a.13.13,0,0,0-.07,0l-.29.16,0,0-.24.13-.11,0-.14.06-.12,0-.14,0-.12,0-.15,0-.12,0-.15,0a.35.35,0,0,1-.11,0l-.32.07h0l-.29.06h-.11l-.19,0-.11,0h-1.13l-.17,0h-.11l-.2,0a.08.08,0,0,1-.07,0,1.17,1.17,0,0,1-.27,0h0l-.23,0-.1,0a.48.48,0,0,1-.17-.05l-.1,0-.19-.07-.1,0-.17-.06-.1,0-.27-.13,0,0a2.38,2.38,0,0,1-.31-.17l-.12-.07-.09-.06a1.48,1.48,0,0,1-.13-.08l-.09-.07a1.7,1.7,0,0,1-.14-.1s0,0-.07,0a1.57,1.57,0,0,1-.21-.17,4.47,4.47,0,0,1-1.67-3.44l0,66.16a4.51,4.51,0,0,0,1.68,3.44l.2.17s.05,0,.07,0a1.7,1.7,0,0,1,.14.1l.09.07.13.08.1.07.08,0h0l.3.17,0,0,.27.13,0,0,0,0,.17.07.11,0,.19.07.07,0h0l.17,0a.29.29,0,0,0,.1,0,.86.86,0,0,0,.23.05h0l.27.06h.06l.21,0h0a.18.18,0,0,1,.1,0h1.43l.18,0h.11l.28,0a.06.06,0,0,0,.05,0l.32-.07s0,0,0,0l.09,0,.15,0,.12,0,.15,0,.12,0,.14-.05.12,0,.14-.06.06,0,0,0,.25-.13.05,0,.29-.16s0,0,.06,0l.21-.14.08-.06.26-.2.07-.06.06-.07a.5.5,0,0,0,.11-.1.34.34,0,0,0,.08-.09l.1-.1.09-.09s.06-.06.08-.1l.08-.1.08-.11,0,0a.35.35,0,0,0,.06-.09l0,0,.12-.18,0,0,.09-.15,0,0h0l0-.07s.05-.1.07-.16a.73.73,0,0,1,0-.09,1,1,0,0,1,.06-.16l0,0s0,0,0-.07,0-.09,0-.13a.54.54,0,0,1,0-.1l0-.13a.11.11,0,0,1,0,0v-.05l0-.11,0-.12a.44.44,0,0,0,0-.13s0,0,0-.06a.08.08,0,0,1,0,0s0-.09,0-.13v-.11s0-.09,0-.13v-.15l0-66.16A.47.47,0,0,1,730.57,769.83Z" transform="translate(-341.02 -23.85)"/>
      <path class="cls-42" d="M728.9,766.24a4.34,4.34,0,0,1,0,6.84,6.38,6.38,0,0,1-8,0,4.35,4.35,0,0,1,0-6.83A6.38,6.38,0,0,1,728.9,766.24Z" transform="translate(-341.02 -23.85)"/>
    </g>
    <g class="cls-40">
      <path class="cls-41" d="M757.1,755a.57.57,0,0,1,0,.13s0,.07,0,.11a.59.59,0,0,1,0,.13s0,.08,0,.11a.53.53,0,0,0,0,.13l0,.12,0,.11a.25.25,0,0,1,0,.1l0,.13a.62.62,0,0,1,0,.1.65.65,0,0,0,0,.13,1,1,0,0,1,0,.1l-.06.16a.25.25,0,0,0,0,.09.8.8,0,0,0-.08.16l0,.08s0,0,0,0l-.1.15,0,0a.71.71,0,0,1-.12.18l0,0a1.47,1.47,0,0,1-.1.13.7.7,0,0,1-.08.1.39.39,0,0,1-.08.1s-.06.07-.08.11-.05.06-.09.09l-.09.1-.09.09-.11.09-.13.11a2.65,2.65,0,0,1-.26.21l-.07.05-.21.14s0,0-.07,0l-.29.16,0,0-.24.13-.11,0-.14.06-.12,0-.14,0-.12,0-.15,0-.12,0-.15,0a.35.35,0,0,1-.11,0l-.32.07s0,0,0,0l-.29,0h-.11l-.19,0-.11,0h-1.13l-.17,0h-.11l-.2,0a.08.08,0,0,1-.07,0,1.17,1.17,0,0,1-.27,0H750l-.23-.05-.1,0a.48.48,0,0,1-.17-.05l-.1,0-.19-.07-.1,0-.17-.06-.1,0a1.66,1.66,0,0,1-.27-.13l0,0a2.38,2.38,0,0,1-.31-.17l-.12-.07-.09-.05-.13-.09-.09-.07a1.7,1.7,0,0,1-.14-.1s0,0-.07,0a1.57,1.57,0,0,1-.21-.17,4.47,4.47,0,0,1-1.67-3.44l0,66.16a4.5,4.5,0,0,0,1.68,3.44l.21.17.06,0a1.7,1.7,0,0,1,.14.1l.09.07.13.09.1.06.08,0h0l.3.17.05,0,.27.13s0,0,0,0l.05,0,.17.07.11,0a1.39,1.39,0,0,1,.19.06l.07,0h0l.17.06.1,0a.86.86,0,0,0,.23.05,0,0,0,0,1,0,0h0l.26,0h.07l.2,0h0a.18.18,0,0,1,.1,0H751l.17,0h.68l.19,0h.11l.18,0h.11l.28-.05h.05l.32-.08h0l.09,0,.15,0,.12,0,.15,0,.12,0,.14-.05.12,0,.14-.06.06,0,0,0,.25-.13,0,0,.29-.16.07,0,.2-.14.08,0,.26-.21.07-.06s0,0,.06-.07a.5.5,0,0,0,.11-.1.34.34,0,0,0,.08-.09l.1-.1.09-.09s.06-.06.08-.1l.08-.1.08-.11,0,0a.35.35,0,0,0,.06-.09l0,0,.12-.18,0,0,.09-.15,0,0h0l0-.07s0-.1.07-.16a.73.73,0,0,1,.05-.09,1.66,1.66,0,0,1,.06-.16l0,0s0,0,0-.07,0-.09.05-.12l0-.11,0-.12a.13.13,0,0,1,0-.06.43.43,0,0,0,0-.05l0-.11,0-.12a.37.37,0,0,0,0-.12s0,0,0-.07a.08.08,0,0,1,0,0s0-.09,0-.12v-.12s0-.09,0-.13v-.15l0-66.16A.47.47,0,0,1,757.1,755Z" transform="translate(-341.02 -23.85)"/>
      <path class="cls-42" d="M755.43,751.37a4.34,4.34,0,0,1,0,6.84,6.38,6.38,0,0,1-8,0,4.35,4.35,0,0,1,0-6.83A6.38,6.38,0,0,1,755.43,751.37Z" transform="translate(-341.02 -23.85)"/>
    </g>
    <g class="cls-40">
      <path class="cls-41" d="M785.06,737v.12s0,.08,0,.12a.59.59,0,0,1,0,.13s0,.07,0,.11,0,.08,0,.13l0,.11,0,.12a.87.87,0,0,1,0,.1l0,.13a.62.62,0,0,1,0,.1s0,.09-.05.13,0,.06,0,.1l-.06.15a.73.73,0,0,1-.05.09s0,.11-.07.17l0,.08,0,0a.83.83,0,0,1-.09.16l0,0a1,1,0,0,1-.12.17l0,0-.1.13-.08.1a.7.7,0,0,1-.08.1.87.87,0,0,1-.08.1l-.09.09-.1.11-.08.09-.11.08-.13.12a1.64,1.64,0,0,1-.26.2.14.14,0,0,1-.08.05,1.3,1.3,0,0,1-.2.15.13.13,0,0,0-.07,0l-.29.16,0,0-.25.13-.1,0a.84.84,0,0,0-.14.06l-.12,0-.14.05-.12,0-.15,0-.12,0-.15,0-.11,0-.32.08h0l-.28,0-.11,0-.19,0-.11,0h-1.13l-.17,0h-.11l-.21,0h-.06a1.17,1.17,0,0,1-.27,0h0l-.23-.05-.1,0a.48.48,0,0,1-.17,0s-.06,0-.1,0a1.39,1.39,0,0,1-.19-.06l-.1,0-.18-.06-.09,0-.27-.13,0,0a2.38,2.38,0,0,1-.31-.17l-.12-.08-.09-.05a.6.6,0,0,1-.13-.09s-.07,0-.09-.06a1.7,1.7,0,0,1-.14-.1s0,0-.07,0a1.57,1.57,0,0,1-.21-.17,4.48,4.48,0,0,1-1.67-3.45l0,66.16a4.52,4.52,0,0,0,1.68,3.45l.2.17s.05,0,.07,0a1.7,1.7,0,0,1,.14.1l.09.06.13.09.09.07.09,0h0l.3.17,0,0,.26.13.05,0,0,0,.17.07.11,0,.19.07.07,0h0l.17,0,.09,0,.24,0h0l.27,0s.05,0,.06,0l.21,0h0a.18.18,0,0,1,.1,0h1.43l.18,0h.11l.28-.05a.06.06,0,0,0,.05,0l.32-.07,0,0,.09,0,.15,0,.12,0,.15-.05.12,0,.14-.05.12,0a.59.59,0,0,1,.14-.06s0,0,.06,0l0,0,.25-.13s0,0,.05,0l.28-.16s.06,0,.07-.05l.21-.15.08,0,.26-.2.07-.06.06-.07a.5.5,0,0,0,.11-.1l.08-.09.1-.1.08-.09.09-.1a1,1,0,0,0,.08-.11l.08-.1,0,0a.18.18,0,0,0,.06-.09l0,0,.12-.18,0,0,.09-.15,0,0h0a.19.19,0,0,0,0-.07.8.8,0,0,0,.08-.16.73.73,0,0,1,0-.09.76.76,0,0,1,.06-.16s0,0,0,0a.11.11,0,0,0,0-.06s0-.09,0-.13,0-.06,0-.1a.61.61,0,0,0,0-.13s0,0,0,0,0,0,0-.05l0-.11,0-.12a.51.51,0,0,0,0-.13s0,0,0-.06a.06.06,0,0,1,0,0,.57.57,0,0,0,0-.13s0-.07,0-.11,0-.09,0-.13V803l0-66.16A.31.31,0,0,1,785.06,737Z" transform="translate(-341.02 -23.85)"/>
      <path class="cls-42" d="M783.4,733.38a4.34,4.34,0,0,1,0,6.84,6.38,6.38,0,0,1-8,0,4.35,4.35,0,0,1,0-6.83A6.38,6.38,0,0,1,783.4,733.38Z" transform="translate(-341.02 -23.85)"/>
    </g>
    <g class="cls-40">
      <path class="cls-41" d="M652.93,784.94v.13s0,.07,0,.11a.59.59,0,0,1,0,.13s0,.08,0,.11,0,.08,0,.13l0,.12,0,.11a.58.58,0,0,0,0,.1l0,.13a.62.62,0,0,1,0,.1s0,.09-.05.13l0,.1-.06.16a.73.73,0,0,0-.05.09s0,.1-.07.16,0,0,0,.08l0,0a1.19,1.19,0,0,1-.09.15l0,0a1.13,1.13,0,0,1-.12.18l0,0-.09.13-.08.1a.39.39,0,0,1-.08.1s-.06.07-.08.11l-.09.09-.1.1-.08.09-.11.09-.13.11a2.65,2.65,0,0,1-.26.21l-.08.05-.2.14a.21.21,0,0,0-.07,0l-.29.16,0,0-.25.13-.1,0-.14.06-.12.05-.14,0-.12,0-.15,0-.12,0-.15,0-.11,0-.32.07s0,0,0,0l-.28,0h-.12l-.18,0h-1.41a.22.22,0,0,1-.11,0l-.21,0a.11.11,0,0,1-.07,0,1.19,1.19,0,0,1-.26-.05h0l-.23,0-.1,0a.48.48,0,0,1-.17-.05l-.1,0-.19-.07-.1,0-.18-.06-.09,0-.27-.12,0,0a2.38,2.38,0,0,1-.31-.17l-.12-.07-.09,0a1.1,1.1,0,0,0-.14-.09s-.06,0-.08-.07a1.7,1.7,0,0,1-.14-.1s0,0-.07-.05a1.57,1.57,0,0,1-.21-.17,4.47,4.47,0,0,1-1.67-3.44l0,66.16a4.47,4.47,0,0,0,1.68,3.44l.2.17s.05,0,.07,0a1.7,1.7,0,0,1,.14.1l.09.07.13.09.09.06.09,0h0l.3.17,0,0,.27.13.05,0,0,0,.17.07.11,0a1.39,1.39,0,0,1,.19.06l.07,0h0l.17,0,.09,0a1,1,0,0,0,.24.05s0,0,0,0h0l.27,0h.06l.21,0h0a.18.18,0,0,1,.1,0h.28l.17,0h.68l.19,0H648l.18,0h.11l.28,0h.05l.32-.08h0l.09,0,.15,0,.12,0,.15,0,.12,0,.14-.05.12,0,.14-.06.06,0,0,0,.25-.13.05,0,.28-.16a.13.13,0,0,0,.07,0l.21-.14.08-.05.26-.21.07-.06a.22.22,0,0,0,.06-.07.32.32,0,0,0,.1-.1.26.26,0,0,0,.09-.09l.1-.1.08-.09.09-.1.08-.1.08-.11,0,0a.35.35,0,0,0,.06-.09l0,0,.12-.18,0,0,.09-.15,0,0h0a.19.19,0,0,0,0-.07.8.8,0,0,0,.08-.16.73.73,0,0,1,0-.09.94.94,0,0,1,.06-.15.08.08,0,0,0,0,0,.19.19,0,0,0,0-.07.84.84,0,0,0,0-.12s0-.07,0-.11a.7.7,0,0,0,0-.12l0-.06a.43.43,0,0,0,0-.05l0-.11,0-.12a.37.37,0,0,0,0-.12s0,0,0-.07a.08.08,0,0,1,0,0,.49.49,0,0,0,0-.12s0-.08,0-.12,0-.09,0-.13v-.15l0-66.16A.31.31,0,0,1,652.93,784.94Z" transform="translate(-341.02 -23.85)"/>
      <path class="cls-42" d="M651.27,781.35a4.34,4.34,0,0,1,0,6.84,6.38,6.38,0,0,1-8,0,4.35,4.35,0,0,1,0-6.83A6.38,6.38,0,0,1,651.27,781.35Z" transform="translate(-341.02 -23.85)"/>
    </g>
    <g class="cls-40">
      <path class="cls-41" d="M626.69,769.83a.57.57,0,0,1,0,.13v.11a.59.59,0,0,1,0,.13s0,.07,0,.11,0,.08,0,.13l0,.12,0,.11a.58.58,0,0,0,0,.1l0,.13a.93.93,0,0,0,0,.1s0,.09-.05.13l0,.1a.76.76,0,0,0-.06.16s0,.06-.05.08,0,.11-.07.17l0,.08,0,0a1.19,1.19,0,0,1-.09.15l0,0a1.88,1.88,0,0,1-.12.18l0,0-.09.13-.08.1-.08.1s-.06.07-.08.11l-.09.08-.1.11-.08.09-.11.09-.13.11a1.64,1.64,0,0,1-.26.2.24.24,0,0,1-.08.06l-.21.14a.15.15,0,0,0-.06,0l-.29.16,0,0-.25.13-.1,0-.14.06-.12,0-.14,0-.12,0-.15,0-.12,0-.15,0-.11,0-.32.07h0l-.28.06h-.12l-.18,0-.11,0h-1.13l-.17,0h-.11l-.21,0a.11.11,0,0,1-.07,0,1.19,1.19,0,0,1-.26,0h-.05l-.23,0-.1,0a.48.48,0,0,1-.17-.05l-.1,0-.19-.07-.1,0-.18-.06-.09,0-.27-.13,0,0a2.38,2.38,0,0,1-.31-.17l-.12-.07-.1-.06a1.48,1.48,0,0,0-.13-.08s-.06,0-.08-.07a1.7,1.7,0,0,1-.14-.1s0,0-.07,0A1.57,1.57,0,0,1,617,773a4.48,4.48,0,0,1-1.68-3.44l0,66.16a4.5,4.5,0,0,0,1.67,3.44l.21.17s0,0,.07,0a1.7,1.7,0,0,1,.14.1l.09.07.13.08.09.07.09,0h0l.3.17,0,0,.27.13,0,0,0,0,.17.07.11,0,.19.07.07,0h0l.18,0,.09,0a1,1,0,0,0,.24.05h0l.27.06H620l.21,0h0a.18.18,0,0,1,.1,0h1.43l.18,0H622l.28,0a.06.06,0,0,0,.05,0l.32-.07,0,0,.09,0,.15,0,.12,0,.15,0,.12,0,.14-.05s.07,0,.12,0l.14-.06s0,0,.06,0l0,0a1.36,1.36,0,0,0,.24-.13l.06,0,.28-.16s.06,0,.07,0l.21-.14.08-.06.26-.2.07-.06.06-.07.1-.1a.26.26,0,0,0,.09-.09l.1-.1.08-.09.09-.1.08-.1a.76.76,0,0,1,.08-.11l0,0s0-.07.06-.09l0,0,.12-.18,0,0,.09-.15,0,0h0l0-.07a.8.8,0,0,0,.08-.16.73.73,0,0,1,0-.09,1,1,0,0,1,.06-.16,0,0,0,0,1,0,0,.19.19,0,0,0,0-.07.65.65,0,0,0,0-.13,1,1,0,0,0,0-.1l0-.13s0,0,0,0v-.05l0-.11,0-.12a.44.44,0,0,0,0-.13s0,0,0-.06a.08.08,0,0,1,0,0,.57.57,0,0,0,0-.13s0-.07,0-.11,0-.09,0-.13v-.15l0-66.16A.31.31,0,0,1,626.69,769.83Z" transform="translate(-341.02 -23.85)"/>
      <path class="cls-42" d="M625,766.24a4.34,4.34,0,0,1,0,6.84,6.38,6.38,0,0,1-8,0,4.34,4.34,0,0,1,0-6.83A6.38,6.38,0,0,1,625,766.24Z" transform="translate(-341.02 -23.85)"/>
    </g>
    <g class="cls-40">
      <path class="cls-41" d="M519.66,709.22a.45.45,0,0,1,0,.12s0,.08,0,.12a.59.59,0,0,1,0,.13s0,.07,0,.11a.62.62,0,0,1,0,.13l0,.11,0,.12a.62.62,0,0,1,0,.1l0,.13a.24.24,0,0,1,0,.1.65.65,0,0,0,0,.13s0,.06,0,.1l-.06.15a.63.63,0,0,0,0,.09s0,.11-.08.17l0,.08a0,0,0,0,1,0,0,.86.86,0,0,1-.1.16l0,0a1.09,1.09,0,0,1-.13.17s0,0,0,0a1.47,1.47,0,0,1-.1.13.7.7,0,0,1-.08.1s0,.06-.07.1l-.09.1s0,.07-.09.09l-.09.11-.09.09-.1.08-.13.12c-.09.08-.18.14-.26.2a.25.25,0,0,1-.08.05l-.21.15a.18.18,0,0,0-.07,0l-.29.16s0,0-.05,0l-.24.13-.11,0-.14.06a.73.73,0,0,1-.12,0l-.14.05-.12,0-.15,0-.12,0-.14,0-.12,0-.32.08h0l-.29,0-.11,0-.18,0-.12,0h-1.13l-.17,0h-.1l-.21,0h-.07a1.28,1.28,0,0,1-.27,0h0l-.24-.05-.09,0a.48.48,0,0,1-.18,0l-.09,0a1.39,1.39,0,0,1-.19-.06l-.11,0-.17-.06-.1,0-.27-.13,0,0a1.78,1.78,0,0,1-.3-.17.91.91,0,0,1-.13-.08l-.09-.05a.6.6,0,0,1-.13-.09l-.09-.06-.14-.1s0,0-.07,0a1.57,1.57,0,0,1-.21-.17A4.48,4.48,0,0,1,508.3,709l0,66.16a4.52,4.52,0,0,0,1.68,3.45l.21.17s0,0,.07,0l.13.1.09.06.13.09.1.07.08,0h0l.3.17.05,0,.27.13,0,0,.05,0,.18.07.1,0,.19.07.07,0h0l.17,0,.1,0,.23,0h0l.27,0a.08.08,0,0,1,.06,0l.21,0h0a.18.18,0,0,1,.1,0h1.43l.18,0H515l.29-.05,0,0,.32-.07s0,0,0,0l.08,0,.15,0,.12,0,.15-.05.12,0,.14-.05.12,0,.14-.06s0,0,.06,0l0,0,.24-.13,0,0,.29-.16.07-.05c.07-.06.14-.09.2-.15l.08,0,.26-.2.07-.06s.05,0,.06-.07a.5.5,0,0,0,.11-.1l.08-.09.1-.1.09-.09a.87.87,0,0,1,.08-.1.44.44,0,0,0,.08-.11l.08-.1,0,0,.06-.09,0,0,.12-.18,0,0,.1-.15s0,0,0,0h0l0-.07.08-.16a.25.25,0,0,1,0-.09l.06-.16s0,0,0,0a.11.11,0,0,0,0-.06s0-.09,0-.13l0-.1,0-.13a.07.07,0,0,0,0,0s0,0,0-.05l0-.11,0-.12s0-.08,0-.13,0,0,0-.06a.06.06,0,0,1,0,0s0-.09,0-.13,0-.07,0-.11v-.28l0-66.16A.26.26,0,0,1,519.66,709.22Z" transform="translate(-341.02 -23.85)"/>
      <path class="cls-42" d="M518,705.63a4.35,4.35,0,0,1,0,6.84,6.39,6.39,0,0,1-8,0,4.34,4.34,0,0,1,0-6.83A6.37,6.37,0,0,1,518,705.63Z" transform="translate(-341.02 -23.85)"/>
    </g>
  </g>
  <g id="Fence_2">
    <g class="cls-40">
      <path class="cls-41" d="M990.05,593a.57.57,0,0,1,0,.13v.11a.59.59,0,0,1,0,.13s0,.08,0,.11,0,.08,0,.13l0,.12,0,.11a.58.58,0,0,0,0,.1l0,.13a.93.93,0,0,0,0,.1s0,.09-.05.13l0,.1a1,1,0,0,0-.06.16.73.73,0,0,0-.05.09s0,.1-.07.16l0,.08,0,0a1.19,1.19,0,0,1-.09.15l0,0a1.13,1.13,0,0,1-.12.18l0,0-.09.13-.08.1-.08.1s-.06.07-.08.11l-.09.09-.1.1-.08.09-.11.09-.13.11a2.65,2.65,0,0,1-.26.21l-.08.05-.21.14-.06,0-.29.16,0,0-.25.13-.1,0-.14.06-.12,0-.14,0-.12,0-.15,0-.12,0-.15,0-.11,0-.32.07s0,0,0,0l-.28,0h-.12l-.18,0-.11,0h-1.13l-.17,0h-.11l-.21,0a.11.11,0,0,1-.07,0,1.19,1.19,0,0,1-.26,0h0l-.23-.05-.1,0a.48.48,0,0,1-.17-.05l-.1,0-.19-.07-.1,0-.18-.06-.09,0a1.66,1.66,0,0,1-.27-.13s0,0,0,0a2.38,2.38,0,0,1-.31-.17l-.12-.07-.1-.05a.6.6,0,0,0-.13-.09s-.06,0-.08-.07a1.7,1.7,0,0,1-.14-.1s0,0-.07,0a1.57,1.57,0,0,1-.21-.17,4.48,4.48,0,0,1-1.68-3.44l0,66.16a4.49,4.49,0,0,0,1.67,3.44l.21.17s.05,0,.07,0a1.7,1.7,0,0,1,.14.1l.09.07.13.09.09.06.09,0h0l.3.17,0,0,.27.13.05,0,0,0,.17.07.11,0a1.39,1.39,0,0,1,.19.06l.07,0h0l.18.06.09,0a1,1,0,0,0,.24.05s0,0,0,0h0l.27,0h.06l.21,0h0a.18.18,0,0,1,.1,0h.28l.17,0h.67l.2,0h.11l.18,0h.11l.28-.05h.05l.32-.08h0l.09,0,.15,0,.12,0,.15,0,.12,0,.14-.05s.07,0,.12,0l.14-.06.06,0,0,0a1.36,1.36,0,0,0,.24-.13l.06,0,.28-.16a.13.13,0,0,0,.07,0l.21-.14.08,0,.26-.21.07-.06.06-.07.1-.1a.26.26,0,0,0,.09-.09l.1-.1.08-.09.09-.1.08-.1a.76.76,0,0,1,.08-.11l0,0s0-.07.06-.09l0,0,.12-.18,0,0,.09-.15,0,0h0l0-.07a.8.8,0,0,0,.08-.16.73.73,0,0,1,0-.09,1.66,1.66,0,0,1,.06-.16,0,0,0,0,1,0,0,.19.19,0,0,0,0-.07.65.65,0,0,0,0-.13,1,1,0,0,0,0-.1l0-.12,0-.06a.43.43,0,0,0,0-.05l0-.11,0-.12a.43.43,0,0,0,0-.12s0,0,0-.07a.08.08,0,0,1,0,0,.49.49,0,0,0,0-.12s0-.08,0-.12,0-.09,0-.13v-.15l0-66.16A.31.31,0,0,1,990.05,593Z" transform="translate(-341.02 -23.85)"/>
      <path class="cls-42" d="M988.39,589.37a4.34,4.34,0,0,1,0,6.84,6.38,6.38,0,0,1-8,0,4.34,4.34,0,0,1,0-6.83A6.38,6.38,0,0,1,988.39,589.37Z" transform="translate(-341.02 -23.85)"/>
    </g>
    <g class="cls-40">
      <path class="cls-41" d="M961.57,578v.13s0,.07,0,.11a.59.59,0,0,1,0,.13s0,.08,0,.11a.53.53,0,0,0,0,.13l0,.12,0,.11a.87.87,0,0,1,0,.1l0,.13a.62.62,0,0,1,0,.1s0,.09-.05.13,0,.06,0,.1l-.06.16a.25.25,0,0,0,0,.09.8.8,0,0,0-.08.16l0,.08s0,0,0,0l-.1.15,0,0a.71.71,0,0,1-.12.18l0,0a1.47,1.47,0,0,1-.1.13l-.08.1a.39.39,0,0,1-.08.1s-.06.07-.08.11-.05.06-.09.09l-.1.1-.08.09-.11.09-.13.11a2.65,2.65,0,0,1-.26.21l-.08.05-.2.14a.21.21,0,0,0-.07,0l-.29.16,0,0-.24.13-.11,0-.14.06-.12,0-.14,0-.12,0-.15,0-.12,0-.15,0-.11,0-.32.07h0l-.29.06h-.11l-.19,0-.11,0h-1.13l-.17,0h-.11l-.2,0a.08.08,0,0,1-.07,0,1.17,1.17,0,0,1-.27,0h-.05l-.23,0-.1,0a.48.48,0,0,1-.17-.05l-.1,0-.19-.07-.1,0-.17-.06-.1,0a1.66,1.66,0,0,1-.27-.13l0,0a2.38,2.38,0,0,1-.31-.17l-.12-.07-.09,0-.13-.09s-.07,0-.09-.07a1.7,1.7,0,0,1-.14-.1s0,0-.07,0a1.57,1.57,0,0,1-.21-.17,4.47,4.47,0,0,1-1.67-3.44l0,66.16a4.5,4.5,0,0,0,1.68,3.44l.2.17s0,0,.07,0a1.7,1.7,0,0,1,.14.1l.09.07.13.08.1.07.08,0h0l.3.17,0,0,.26.13,0,0,0,0,.17.07.11,0,.19.07.07,0h0l.17.06.1,0a.86.86,0,0,0,.23.05h0l.27.06h.06l.21,0h0a.18.18,0,0,1,.1,0h.28l.17,0h.68l.19,0h.11l.18,0h.11l.28,0a.06.06,0,0,0,.05,0l.32-.07h0l.09,0,.15,0,.12,0,.15,0,.12,0,.14-.05.12,0,.14-.06.06,0,0,0,.25-.13.05,0,.28-.16s.06,0,.07,0l.21-.14.08-.05c.09-.07.17-.15.26-.21l.07-.06.06-.07a.5.5,0,0,0,.11-.1.34.34,0,0,0,.08-.09l.1-.1.09-.09s.06-.06.08-.1l.08-.1.08-.11,0,0a.35.35,0,0,0,.06-.09l0,0,.12-.18,0,0L961,646l0,0h0l0-.07s.05-.1.07-.16a.73.73,0,0,1,0-.09,1.66,1.66,0,0,1,.06-.16,0,0,0,0,0,0,0,.19.19,0,0,0,0-.07s0-.09,0-.13a.54.54,0,0,1,0-.1l0-.13a.11.11,0,0,1,0,0,.43.43,0,0,0,0-.05l0-.11,0-.12a.43.43,0,0,0,0-.12s0,0,0-.07a.08.08,0,0,1,0,0s0-.09,0-.12v-.12s0-.09,0-.13v-.15l0-66.16A.31.31,0,0,1,961.57,578Z" transform="translate(-341.02 -23.85)"/>
      <path class="cls-42" d="M959.91,574.36a4.34,4.34,0,0,1,0,6.84,6.38,6.38,0,0,1-8,0,4.35,4.35,0,0,1,0-6.83A6.38,6.38,0,0,1,959.91,574.36Z" transform="translate(-341.02 -23.85)"/>
    </g>
    <g class="cls-40">
      <path class="cls-41" d="M936.88,561.58a.45.45,0,0,1,0,.12s0,.08,0,.12a.59.59,0,0,1,0,.13s0,.07,0,.11a.62.62,0,0,1,0,.13l0,.11,0,.12a.62.62,0,0,1,0,.1l0,.13a.24.24,0,0,1,0,.1.65.65,0,0,0,0,.13s0,.06,0,.1l-.06.15a.63.63,0,0,0,0,.09s-.05.11-.08.17l0,.08a0,0,0,0,1,0,0,.86.86,0,0,1-.1.16l0,0a1.09,1.09,0,0,1-.13.17s0,0,0,0a1.47,1.47,0,0,1-.1.13.7.7,0,0,1-.08.1s0,.06-.07.1l-.09.1s0,.07-.09.09l-.09.11-.09.09-.1.08-.13.12c-.09.08-.18.14-.26.2a.25.25,0,0,1-.08.05l-.21.15a.18.18,0,0,0-.07,0l-.29.16-.05,0-.24.13-.11,0-.14.06a.73.73,0,0,1-.12,0l-.14,0-.12,0-.15,0-.12,0-.14,0-.12,0-.32.08h0l-.29,0-.11,0-.18,0-.12,0h-1.13l-.17,0h-.1l-.21,0h-.07a1.28,1.28,0,0,1-.27,0h0l-.24,0-.09,0a.48.48,0,0,1-.18-.05l-.09,0a1.39,1.39,0,0,1-.19-.06l-.11,0-.17-.06-.1,0-.27-.13,0,0a2.91,2.91,0,0,1-.3-.17.91.91,0,0,1-.13-.08l-.09,0a.6.6,0,0,1-.13-.09l-.09-.06-.14-.1s0,0-.07,0l-.21-.17a4.48,4.48,0,0,1-1.67-3.45l0,66.16a4.52,4.52,0,0,0,1.68,3.45l.21.17s0,0,.07,0l.13.1.09.06.13.09.1.07.08,0h0l.3.17.05,0,.27.13,0,0,.05,0a.64.64,0,0,0,.18.06l.1,0,.19.07.07,0h0l.17,0,.1,0,.23.05h0l.27,0a.08.08,0,0,1,.06,0l.21,0h0a.18.18,0,0,1,.1,0h1.43l.18,0h.11l.29,0,0,0,.32-.07s0,0,0,0l.08,0,.15,0,.12,0,.15,0,.12,0,.14-.05.12,0,.14-.06.06,0,0,0,.24-.13,0,0,.29-.16s0,0,.07-.06a1.43,1.43,0,0,0,.2-.14l.08-.05.26-.2.07-.06s0,0,.06-.07a.5.5,0,0,0,.11-.1l.08-.09a.94.94,0,0,0,.1-.1.76.76,0,0,1,.09-.09.87.87,0,0,1,.08-.1.44.44,0,0,0,.08-.11l.08-.1,0,0L936,630l0,0,.12-.18,0,0,.1-.15s0,0,0,0v0l0-.06.08-.16a.25.25,0,0,1,0-.09l.06-.16s0,0,0,0a.11.11,0,0,0,0-.06s0-.09.05-.13l0-.1,0-.13s0,0,0,0v-.05l0-.11,0-.12s0-.08,0-.13,0,0,0-.06a.06.06,0,0,1,0,0s0-.09,0-.13,0-.07,0-.11v-.28l0-66.16A.26.26,0,0,1,936.88,561.58Z" transform="translate(-341.02 -23.85)"/>
      <path class="cls-42" d="M935.21,558a4.35,4.35,0,0,1,0,6.84,6.39,6.39,0,0,1-8,0,4.34,4.34,0,0,1,0-6.83A6.37,6.37,0,0,1,935.21,558Z" transform="translate(-341.02 -23.85)"/>
    </g>
    <g class="cls-40">
      <path class="cls-41" d="M907.27,544.48a.45.45,0,0,1,0,.12s0,.08,0,.12a.59.59,0,0,1,0,.13.41.41,0,0,1,0,.11s0,.08,0,.13l0,.11,0,.12a.62.62,0,0,1,0,.1l0,.13a.51.51,0,0,1,0,.1s0,.09,0,.13,0,.06,0,.1a.94.94,0,0,1-.06.15.25.25,0,0,1,0,.09s0,.11-.08.17l0,.08,0,0a.86.86,0,0,1-.1.16l0,0-.12.17,0,0a.64.64,0,0,1-.1.13s0,.06-.07.1a.7.7,0,0,0-.08.1l-.09.1a.26.26,0,0,1-.09.09l-.09.11-.09.09-.1.08-.13.12c-.09.08-.18.14-.26.2a.25.25,0,0,1-.08.05l-.21.15a.18.18,0,0,0-.07,0,2.69,2.69,0,0,1-.29.16s0,0-.05,0l-.24.13-.11,0a.75.75,0,0,0-.13.06l-.13,0-.13.05-.13,0-.14,0-.13,0-.14,0-.12,0L903,549h0l-.29,0-.11,0-.18,0-.12,0h-1.12l-.18,0h-.1l-.21,0h-.07a1.28,1.28,0,0,1-.27,0h0l-.24-.05-.09,0a.61.61,0,0,1-.18,0l-.09,0a1.39,1.39,0,0,1-.19-.06l-.11,0-.17-.06-.1,0-.27-.13,0,0a2.28,2.28,0,0,1-.3-.17.5.5,0,0,1-.12-.08.31.31,0,0,1-.1-.05l-.13-.09L898,548l-.14-.1s0,0-.07,0a2.61,2.61,0,0,1-.2-.17,4.49,4.49,0,0,1-1.68-3.45l0,66.16a4.52,4.52,0,0,0,1.68,3.45l.21.17s0,0,.07,0a1.7,1.7,0,0,0,.14.1s.06,0,.08.06l.13.09.1.07.09,0h0c.1,0,.2.12.31.17l0,0,.27.13s0,0,0,0l.05,0,.18.07.1,0,.19.07.07,0h0l.17,0,.1,0,.23,0h0l.27.05a.07.07,0,0,1,.06,0l.21,0h0a.15.15,0,0,1,.09,0h1.43a1.08,1.08,0,0,0,.19,0h.1l.29-.05,0,0,.32-.07s0,0,0,0l.08,0,.15,0,.12,0,.15-.05.12,0,.14-.05s.08,0,.12,0l.14-.06s.05,0,.06,0l0,0,.24-.13,0,0,.29-.16.07-.05.21-.15.07,0,.27-.2.06-.06.07-.07a.47.47,0,0,0,.1-.1l.09-.09.09-.1a.76.76,0,0,1,.09-.09l.09-.1.07-.11a.39.39,0,0,0,.08-.1l0,0,.06-.09,0,0,.13-.18,0,0,.1-.15a.08.08,0,0,0,0,0h0l0-.07.08-.16a.25.25,0,0,1,0-.09l.06-.16,0,0a.11.11,0,0,0,0-.06.65.65,0,0,1,0-.13s0-.06,0-.1l0-.13s0,0,0,0v0l0-.11,0-.12a.53.53,0,0,0,0-.13s0,0,0-.06a.06.06,0,0,1,0,0s0-.09,0-.13,0-.07,0-.11,0-.09,0-.13v-.15l0-66.16A.26.26,0,0,1,907.27,544.48Z" transform="translate(-341.02 -23.85)"/>
      <path class="cls-42" d="M905.6,540.89a4.35,4.35,0,0,1,0,6.84,6.39,6.39,0,0,1-8,0,4.34,4.34,0,0,1,0-6.83A6.37,6.37,0,0,1,905.6,540.89Z" transform="translate(-341.02 -23.85)"/>
    </g>
    <g class="cls-40">
      <path class="cls-41" d="M882.33,528.61a.57.57,0,0,1,0,.13s0,.07,0,.11a.57.57,0,0,1,0,.13s0,.08,0,.12,0,.07,0,.12l0,.12,0,.11,0,.11,0,.12a.51.51,0,0,1,0,.1.65.65,0,0,1,0,.13.54.54,0,0,0,0,.1,1.66,1.66,0,0,0-.06.16.73.73,0,0,0-.05.09l-.08.16,0,.08s0,0,0,0a1.19,1.19,0,0,1-.09.15l0,0a1.13,1.13,0,0,1-.12.18l0,0-.09.13-.08.1-.08.11-.09.1-.08.09-.1.1-.09.09a.81.81,0,0,1-.1.09l-.13.11-.26.21-.08.05-.21.14-.07,0-.28.17-.06,0-.24.13-.1,0-.14.06-.12,0-.14.06-.12,0-.15.06-.12,0-.15,0-.11,0-.32.07s0,0,0,0l-.28,0h-.12l-.18,0H876a.18.18,0,0,1-.1,0l-.21,0h-.07l-.27-.06h0l-.23-.05a.29.29,0,0,1-.1,0,.48.48,0,0,1-.17,0l-.1,0-.19-.07-.1,0-.18-.07-.09,0a1.31,1.31,0,0,1-.27-.12l-.05,0a2.28,2.28,0,0,1-.3-.17l-.12-.07s-.06,0-.1-.05a.6.6,0,0,0-.13-.09s-.06,0-.08-.07a.5.5,0,0,1-.14-.1s0,0-.07,0a1.57,1.57,0,0,1-.21-.17,4.48,4.48,0,0,1-1.68-3.44l0,66.16a4.49,4.49,0,0,0,1.67,3.44l.21.17s0,0,.07.05a1.21,1.21,0,0,0,.14.1l.09.07.13.09.09.06.09,0h0a3.07,3.07,0,0,0,.31.17s0,0,0,0l.27.12,0,0,.06,0a.61.61,0,0,0,.17.07l.1,0,.2.06.07,0h0l.18.05.09,0a1,1,0,0,0,.24,0,0,0,0,0,1,0,0h0l.27.05h.06l.21,0h.39l.17,0H877l.19,0h.12l.18,0a.07.07,0,0,0,.06,0h0l.29-.05h0l.32-.08h0l.09,0,.14,0,.13,0,.14-.06.13,0,.13-.06.13-.05.14-.06s0,0,.06,0l0,0,.24-.13.05,0,.29-.17a.18.18,0,0,0,.07-.05l.21-.14.08,0,.26-.21.07-.06.06-.06.1-.11s.06-.06.09-.09l.09-.1a.38.38,0,0,0,.09-.09l.09-.1.08-.1a.86.86,0,0,1,.07-.1s0,0,0,0,0-.07.06-.09l0,0,.12-.18,0,0s.06-.1.1-.15l0,0h0a.19.19,0,0,1,0-.07s.05-.1.08-.16a.63.63,0,0,0,0-.09.94.94,0,0,0,.06-.15l0,0a.19.19,0,0,0,0-.07s0-.09,0-.12,0-.07,0-.11l0-.12s0,0,0,0,0,0,0-.06l0-.11,0-.12a.37.37,0,0,0,0-.12s0,0,0-.07v0s0-.08,0-.12,0-.08,0-.12,0-.09,0-.13v-.15l0-66.16A.31.31,0,0,1,882.33,528.61Z" transform="translate(-341.02 -23.85)"/>
      <path class="cls-42" d="M880.66,525a4.36,4.36,0,0,1,0,6.85,6.38,6.38,0,0,1-8,0,4.33,4.33,0,0,1,0-6.83A6.35,6.35,0,0,1,880.66,525Z" transform="translate(-341.02 -23.85)"/>
    </g>
    <g class="cls-40">
      <path class="cls-41" d="M858.72,515.57a.57.57,0,0,1,0,.13s0,.08,0,.12a.43.43,0,0,1,0,.12.49.49,0,0,0,0,.12s0,.08,0,.13l0,.11,0,.12,0,.1a.61.61,0,0,0,0,.13l0,.1a.65.65,0,0,0,0,.13,1,1,0,0,0,0,.1.94.94,0,0,1-.06.15s0,.07,0,.09a1.38,1.38,0,0,0-.08.17.21.21,0,0,0,0,.07l0,0-.1.16,0,0-.12.18,0,0a1.47,1.47,0,0,1-.1.13.86.86,0,0,0-.07.1.7.7,0,0,0-.08.1l-.09.1s-.05.07-.09.09l-.09.1a.76.76,0,0,1-.09.09.41.41,0,0,1-.1.09l-.13.12-.26.2a.25.25,0,0,1-.08.05l-.21.14-.07,0a2.19,2.19,0,0,1-.29.17l0,0-.24.12-.11,0-.13.07-.13,0-.14,0-.12,0-.14,0-.13,0-.14,0-.12,0-.32.08h0l-.29,0H854l-.18,0h-.12l-.19,0h-.82a.25.25,0,0,1-.12,0h-.27l-.21,0H852l-.27,0h0l-.24-.06-.09,0-.18-.05-.09,0-.19-.06-.11,0-.17-.06-.1,0-.27-.13s0,0,0,0l-.3-.16-.13-.08-.09,0-.13-.09-.09-.06-.14-.1-.07-.06a1.56,1.56,0,0,1-.2-.16,4.52,4.52,0,0,1-1.68-3.45l0,66.16a4.53,4.53,0,0,0,1.68,3.45l.21.16.07.06.14.1.08.06.13.09.1.06.09.06h0l.31.16s0,0,0,0l.27.13,0,0,0,0,.18.06.1,0a1.39,1.39,0,0,0,.19.06l.07,0h0l.17,0,.1,0,.23.05h0l.27,0H852a.76.76,0,0,0,.21,0h.1l.17,0h1.26a1.08,1.08,0,0,1,.19,0H854s0,0,0,0a1.47,1.47,0,0,0,.29,0h0l.32-.08h0l.08,0,.15,0,.12,0,.15,0,.12,0,.14-.05.12,0,.14-.07.06,0,.05,0a1.41,1.41,0,0,0,.24-.13l0,0,.29-.17a.15.15,0,0,0,.07,0l.21-.14.07-.05.26-.2a.46.46,0,0,0,.07-.07l.06-.06.11-.1.09-.09.09-.1.09-.09a.87.87,0,0,1,.09-.11.43.43,0,0,0,.07-.1.7.7,0,0,0,.08-.1l0,0a.7.7,0,0,0,.06-.09l0,0,.12-.18,0,0s.06-.11.1-.16v0l0-.06.08-.17a.63.63,0,0,1,0-.09l.06-.15s0,0,0,0a.14.14,0,0,0,0-.06.65.65,0,0,1,0-.13l0-.1,0-.13s0,0,0,0v-.05l0-.12,0-.11a.53.53,0,0,0,0-.13s0,0,0-.06,0,0,0,0,0-.09,0-.13,0-.08,0-.11,0-.09,0-.13v-.15l0-66.16A.23.23,0,0,1,858.72,515.57Z" transform="translate(-341.02 -23.85)"/>
      <path class="cls-42" d="M857.05,512a4.35,4.35,0,0,1,0,6.84,6.39,6.39,0,0,1-8,0,4.34,4.34,0,0,1,0-6.83A6.37,6.37,0,0,1,857.05,512Z" transform="translate(-341.02 -23.85)"/>
    </g>
    <g class="cls-40">
      <path class="cls-41" d="M904.18,668.31a.57.57,0,0,1,0,.13s0,.08,0,.12,0,.08,0,.12,0,.08,0,.12,0,.07,0,.13l0,.11,0,.12,0,.1,0,.12s0,.08,0,.11a.42.42,0,0,1,0,.12.45.45,0,0,0,0,.11l-.07.15a.36.36,0,0,1,0,.09l-.08.17,0,.07,0,0-.09.15,0,0a1.4,1.4,0,0,1-.12.18l0,0a.62.62,0,0,1-.09.12.76.76,0,0,0-.08.11l-.08.1-.09.1-.08.09-.1.1-.09.09a.81.81,0,0,1-.1.09l-.13.12-.26.2-.08,0L902,672l-.07,0a2.09,2.09,0,0,1-.28.17l-.06,0-.24.13-.1,0s-.1,0-.14.07l-.12,0-.14,0-.12,0-.15,0-.12,0-.15,0-.11,0-.33.08h0l-.29,0h-.11l-.18,0h-.3a.22.22,0,0,0-.11,0h-.55a.5.5,0,0,1-.17,0h-.39l-.21,0h-.07l-.27-.05,0,0-.24,0-.09,0-.17-.05-.1,0a1.39,1.39,0,0,0-.19-.06l-.11,0-.17-.07-.09,0a2.24,2.24,0,0,1-.27-.13s0,0-.05,0l-.3-.16-.12-.08-.1,0-.13-.09s-.06,0-.09-.06l-.13-.11a.18.18,0,0,1-.07-.05l-.21-.16a4.52,4.52,0,0,1-1.68-3.45l0,66.16a4.52,4.52,0,0,0,1.67,3.45l.21.16s0,0,.07,0l.14.11.09.06.13.09.09.06.09,0,0,0,.31.16,0,0,.27.13,0,0,.06,0a1.15,1.15,0,0,0,.17.06l.1,0,.2.06s0,0,.06,0h0l.18,0,.09,0a2.1,2.1,0,0,0,.24.06h0l.27,0h.06l.21,0h.28a.22.22,0,0,1,.11,0h1l.12,0,.18,0h.06s0,0,0,0a1.47,1.47,0,0,0,.29,0h0l.32-.08h0l.09,0,.14,0,.13,0,.14,0,.13,0,.13-.05.13,0,.13-.07.07,0s0,0,0,0l.24-.13.05,0,.29-.17a.12.12,0,0,0,.07,0l.21-.14.08-.05.26-.21.07-.06.06-.06.1-.1.09-.09.09-.11.09-.09.09-.1.08-.1s.05-.06.07-.1l0,0,.06-.09,0,0,.12-.18,0,0s.06-.1.1-.15a.05.05,0,0,0,0,0h0l0-.06s.05-.11.08-.17a.25.25,0,0,0,0-.09.94.94,0,0,0,.06-.15s0,0,0,0,0,0,0-.06,0-.09,0-.13a1,1,0,0,1,0-.1.61.61,0,0,1,0-.13s0,0,0,0a.43.43,0,0,1,0-.05l0-.12,0-.11a.51.51,0,0,0,0-.13s0,0,0-.06v0s0-.09,0-.13,0-.08,0-.12,0-.08,0-.12v-.16l0-66.16A.26.26,0,0,1,904.18,668.31Z" transform="translate(-341.02 -23.85)"/>
      <path class="cls-42" d="M902.51,664.73a4.34,4.34,0,0,1,0,6.84,6.38,6.38,0,0,1-8,0,4.33,4.33,0,0,1,0-6.83A6.37,6.37,0,0,1,902.51,664.73Z" transform="translate(-341.02 -23.85)"/>
    </g>
    <g class="cls-40">
      <path class="cls-41" d="M932.92,653.21v.12s0,.08,0,.12a.59.59,0,0,1,0,.13s0,.07,0,.11,0,.08,0,.13l0,.11,0,.12a.58.58,0,0,0,0,.1l0,.13a.62.62,0,0,1,0,.1s0,.09-.05.13l0,.1-.06.15a.73.73,0,0,1-.05.09s0,.11-.07.17l0,.08,0,0a.83.83,0,0,1-.09.16l0,0a1,1,0,0,1-.12.17l0,0-.09.13-.08.1a.7.7,0,0,1-.08.1.87.87,0,0,1-.08.1l-.09.09-.1.11-.08.09-.11.08-.13.12a1.64,1.64,0,0,1-.26.2.14.14,0,0,1-.08.05l-.2.15a.13.13,0,0,0-.07,0l-.29.16s0,0,0,0l-.25.13-.1,0a.84.84,0,0,0-.14.06l-.12,0-.14,0-.12,0-.15,0-.12,0-.15,0-.11,0-.32.08h-.05l-.28,0-.12,0-.18,0-.11,0h-1.13l-.17,0h-.11l-.21,0h-.06a1.17,1.17,0,0,1-.27,0h0l-.23-.05-.1,0a.48.48,0,0,1-.17-.05s-.06,0-.1,0a1.39,1.39,0,0,1-.19-.06l-.1,0-.18-.06-.09,0-.27-.13s0,0,0,0-.2-.11-.31-.17l-.12-.08-.09,0a1.1,1.1,0,0,1-.14-.09s-.06,0-.08-.06a1.7,1.7,0,0,1-.14-.1s0,0-.07,0l-.21-.17a4.48,4.48,0,0,1-1.67-3.45l0,66.16a4.49,4.49,0,0,0,1.68,3.45l.2.17s.05,0,.07,0a1.7,1.7,0,0,1,.14.1l.09.06.13.09.09.07.09,0h0l.3.17,0,0,.27.13.05,0,0,0a.58.58,0,0,0,.17.06l.11,0,.19.07.07,0h0l.17,0,.09,0,.24.05h0l.27,0s0,0,.06,0l.21,0h0a.18.18,0,0,1,.1,0h1.43l.18,0h.11l.28-.05a.06.06,0,0,0,0,0l.32-.07,0,0,.09,0,.15,0,.12,0,.15,0,.12,0,.14-.05.12,0a.59.59,0,0,1,.14-.06l.06,0,0,0,.25-.13s0,0,.05,0l.28-.16s.06,0,.07-.06.14-.08.21-.14l.08-.05.26-.2.07-.06.06-.07a.32.32,0,0,0,.1-.1.38.38,0,0,0,.09-.09l.1-.1.08-.09.09-.1a1,1,0,0,0,.08-.11l.08-.1,0,0a.18.18,0,0,0,.06-.09l0,0,.12-.18,0,0,.09-.15,0,0v0a.11.11,0,0,0,0-.06.8.8,0,0,0,.08-.16.73.73,0,0,1,0-.09.76.76,0,0,1,.06-.16s0,0,0,0a.11.11,0,0,0,0-.06.65.65,0,0,0,0-.13s0-.06,0-.1a.61.61,0,0,0,0-.13s0,0,0,0v-.05l0-.11,0-.12a.51.51,0,0,0,0-.13s0,0,0-.06a.06.06,0,0,1,0,0,.57.57,0,0,0,0-.13s0-.07,0-.11,0-.09,0-.13v-.15l0-66.16A.31.31,0,0,1,932.92,653.21Z" transform="translate(-341.02 -23.85)"/>
      <path class="cls-42" d="M931.26,649.62a4.34,4.34,0,0,1,0,6.84,6.38,6.38,0,0,1-8,0,4.35,4.35,0,0,1,0-6.83A6.38,6.38,0,0,1,931.26,649.62Z" transform="translate(-341.02 -23.85)"/>
    </g>
    <g class="cls-40">
      <path class="cls-41" d="M959.15,638.3a.57.57,0,0,1,0,.13s0,.08,0,.11,0,.09,0,.13,0,.08,0,.12,0,.07,0,.13l0,.11,0,.11,0,.11,0,.12s0,.08,0,.11a.42.42,0,0,1,0,.12.45.45,0,0,0,0,.11l-.07.15a.36.36,0,0,1,0,.09,1.38,1.38,0,0,0-.08.17l0,.07,0,0-.09.15,0,0a1.4,1.4,0,0,1-.12.18l0,0-.09.12a.76.76,0,0,0-.08.11l-.08.1-.09.1-.08.09-.1.1-.09.09a.81.81,0,0,1-.1.09l-.13.11a2.39,2.39,0,0,1-.26.21l-.08,0-.21.14-.07,0a2.09,2.09,0,0,1-.28.17l-.06,0-.24.13-.1.05-.14.07-.12.05-.14,0-.12,0-.15,0-.12,0-.15,0-.11,0-.33.08h0l-.29.05h-.11l-.18,0h-.3a.22.22,0,0,0-.11,0h-.55a.5.5,0,0,1-.17,0h-.39l-.21,0h-.07l-.27-.05,0,0-.24,0-.09,0-.17-.05-.1,0a1.39,1.39,0,0,0-.19-.06l-.11,0-.17-.07-.09,0a2.24,2.24,0,0,1-.27-.13s0,0,0,0l-.3-.16-.12-.08-.1,0-.13-.09s-.06,0-.09-.06l-.13-.11a.18.18,0,0,1-.07-.05l-.21-.16a4.52,4.52,0,0,1-1.68-3.45l0,66.16a4.52,4.52,0,0,0,1.67,3.45l.21.16s0,0,.07,0l.14.11.09.06.13.09.09.06.09,0,0,0,.31.16,0,0,.27.13,0,0,.06,0a1.15,1.15,0,0,0,.17.06l.1,0,.2.06s0,0,.06,0h0l.18,0,.09,0,.24.06h0l.27,0h.06l.21,0h.28a.23.23,0,0,1,.11,0h1l.12,0,.18,0h.06l0,0a1.47,1.47,0,0,0,.29,0h0l.32-.08h0l.09,0,.14,0,.13,0,.14,0,.12,0,.14-.05.13,0,.13-.07.07,0s0,0,0,0l.24-.13,0,0,.29-.17a.12.12,0,0,0,.07,0l.21-.14.08-.05.26-.21.07-.06.06-.06.1-.11s.06-.06.09-.08l.09-.11.09-.09.09-.1.08-.1s0-.06.07-.1l0,0,.06-.09,0,0,.12-.18,0,0s.06-.1.1-.15a.05.05,0,0,0,0,0h0l0-.06s0-.11.08-.17,0-.06,0-.09a.94.94,0,0,0,.06-.15s0,0,0,0,0,0,0-.06,0-.09,0-.13a1,1,0,0,1,0-.1.61.61,0,0,1,0-.13s0,0,0,0a.43.43,0,0,1,0-.05l0-.12,0-.11a.51.51,0,0,0,0-.13v-.06s0,0,0,0,0-.09,0-.13,0-.08,0-.12,0-.09,0-.12v-.16l0-66.16A.26.26,0,0,1,959.15,638.3Z" transform="translate(-341.02 -23.85)"/>
      <path class="cls-42" d="M957.48,634.72a4.34,4.34,0,0,1,0,6.84,6.38,6.38,0,0,1-8,0,4.33,4.33,0,0,1,0-6.83A6.37,6.37,0,0,1,957.48,634.72Z" transform="translate(-341.02 -23.85)"/>
    </g>
    <g class="cls-40">
      <path class="cls-41" d="M986.48,621.37a.57.57,0,0,1,0,.13s0,.07,0,.11a.57.57,0,0,1,0,.13s0,.07,0,.11,0,.08,0,.13l0,.12,0,.11a.62.62,0,0,1,0,.1.61.61,0,0,1,0,.13.93.93,0,0,0,0,.1s0,.09,0,.13l0,.1a.76.76,0,0,0-.06.16s0,.06,0,.08a1.3,1.3,0,0,1-.08.17s0,.05,0,.08l0,0a1.19,1.19,0,0,1-.09.15l0,0a1.88,1.88,0,0,1-.12.18l0,0-.09.13-.08.1-.08.1a.87.87,0,0,1-.09.11l-.08.08-.1.11-.08.09-.11.09-.13.11a2.26,2.26,0,0,1-.26.2l-.08.06-.21.14-.07,0-.28.16-.05,0-.25.13-.1,0-.14.06-.12,0-.14.05-.12,0-.15,0-.12,0-.15,0-.11,0-.32.08h0l-.28.06h-.12l-.18,0-.11,0H980.3l-.17,0H980l-.21,0a.11.11,0,0,1-.07,0,1.41,1.41,0,0,1-.27,0h0l-.23-.05-.1,0a.48.48,0,0,1-.17,0l-.1,0-.19-.07-.1,0-.18-.06-.09,0a2.24,2.24,0,0,1-.27-.13l0,0a2.28,2.28,0,0,1-.3-.17l-.12-.07-.1-.06a1.48,1.48,0,0,0-.13-.08s-.06,0-.08-.07a.85.85,0,0,1-.14-.1s-.05,0-.07,0a1.57,1.57,0,0,1-.21-.17,4.48,4.48,0,0,1-1.68-3.44l0,66.16a4.5,4.5,0,0,0,1.67,3.44l.21.17s0,0,.07.05.1.06.14.1a.47.47,0,0,0,.09.06.6.6,0,0,0,.13.09l.09.07.09.05h0l.3.17,0,0,.27.13,0,0,.05,0,.17.07.11,0,.19.07.07,0h0l.18.05.09,0a1,1,0,0,0,.24,0h0l.27.06h.06l.21,0h0a.15.15,0,0,1,.09,0h1.44l.18,0h.1l.29-.05s0,0,0,0l.33-.07,0,0,.09,0,.15,0,.12,0s.09,0,.15-.05l.12,0,.14,0s.07,0,.12-.05l.14-.06s0,0,.06,0l0,0a1.36,1.36,0,0,0,.24-.13l.06,0,.28-.16.07-.05c.07-.06.14-.09.21-.14l.08-.06.26-.2a.2.2,0,0,1,.07-.06l.06-.07a.47.47,0,0,0,.1-.1l.09-.09a.94.94,0,0,1,.1-.1l.08-.09.09-.1.08-.1a.76.76,0,0,1,.08-.11l0,0s0-.06.06-.08l0,0,.12-.18,0,0a1.3,1.3,0,0,0,.1-.15l0,0h0l0-.07.08-.16a.63.63,0,0,0,0-.09,1,1,0,0,0,.06-.16l0,0a.19.19,0,0,0,0-.07.65.65,0,0,0,0-.13,1,1,0,0,0,0-.1l0-.13s0,0,0,0v0l0-.11,0-.12a.44.44,0,0,0,0-.13s0,0,0-.06a.08.08,0,0,1,0,0,.57.57,0,0,1,0-.13s0-.07,0-.11,0-.09,0-.13v-.15l0-66.16A.31.31,0,0,1,986.48,621.37Z" transform="translate(-341.02 -23.85)"/>
      <path class="cls-42" d="M984.81,617.78a4.34,4.34,0,0,1,0,6.84,6.38,6.38,0,0,1-8,0,4.34,4.34,0,0,1,0-6.83A6.37,6.37,0,0,1,984.81,617.78Z" transform="translate(-341.02 -23.85)"/>
    </g>
    <g class="cls-40">
      <path class="cls-41" d="M1014.24,606.18a.57.57,0,0,1,0,.13s0,.07,0,.11a.59.59,0,0,1,0,.13.45.45,0,0,0,0,.11s0,.08,0,.13l0,.12,0,.11a.62.62,0,0,1,0,.1.61.61,0,0,0,0,.13.51.51,0,0,1,0,.1s0,.09,0,.13,0,.06,0,.1a1.66,1.66,0,0,1-.06.16s0,.06,0,.09-.05.1-.08.16,0,0,0,.08l0,0-.1.15,0,0-.12.18,0,0a1.47,1.47,0,0,1-.1.13s-.05.06-.07.1l-.08.1-.09.11s-.05.06-.09.08l-.09.11-.09.09-.1.09-.13.11c-.09.08-.18.14-.26.2l-.08.06-.21.14a.18.18,0,0,0-.07,0l-.29.16s0,0-.05,0l-.24.13-.11,0-.13.06-.13.05-.13,0-.13,0-.14,0-.13,0-.14,0-.12,0-.32.07h0l-.29.06h-.11l-.18,0-.12,0h-1.12l-.18,0h-.1l-.21,0a.1.1,0,0,1-.07,0,1.28,1.28,0,0,1-.27-.05h0l-.24,0-.09,0a.61.61,0,0,1-.18-.05l-.09,0-.19-.07-.11,0-.17-.06-.1,0a2.19,2.19,0,0,1-.27-.13l0,0a2.28,2.28,0,0,1-.3-.17l-.12-.07-.1-.06-.13-.08-.09-.07-.14-.1s0,0-.07-.05a1.51,1.51,0,0,1-.2-.17,4.48,4.48,0,0,1-1.68-3.44l0,66.16a4.51,4.51,0,0,0,1.68,3.44l.21.17s0,0,.07,0a1.7,1.7,0,0,0,.14.1s.06,0,.08.07a1.48,1.48,0,0,1,.13.08l.1.07.09,0h0c.1.05.2.12.31.17l0,0,.27.13,0,0,.05,0,.18.07.1,0,.19.07.07,0h0l.17.06.1,0a1.06,1.06,0,0,0,.23.05h0l.27.06h.06l.21,0h0a.15.15,0,0,1,.09,0h1.43a1.25,1.25,0,0,0,.19,0h.1l.29,0,0,0,.32-.07h0s0,0,.08,0l.15,0,.12,0,.15,0,.12,0,.14,0s.08,0,.12,0l.14-.06.06,0,.05,0,.24-.13,0,0,.29-.16.07,0,.21-.14.07-.06.26-.2.07-.06.07-.07.1-.1.09-.09.09-.1.09-.09s.06-.06.09-.1l.07-.1a.76.76,0,0,0,.08-.11l0,0,.06-.09,0,0,.12-.18,0,0s.06-.1.1-.15a.08.08,0,0,0,0,0h0l0-.07c0-.05,0-.1.08-.16a.25.25,0,0,1,0-.09l.06-.16,0,0a.19.19,0,0,0,0-.07.65.65,0,0,1,0-.13.29.29,0,0,0,0-.1l0-.13s0,0,0,0v-.05l0-.11,0-.12a.49.49,0,0,0,0-.13s0,0,0-.06a.08.08,0,0,1,0,0s0-.09,0-.12,0-.08,0-.12,0-.09,0-.13v-.15l0-66.16A.26.26,0,0,1,1014.24,606.18Z" transform="translate(-341.02 -23.85)"/>
      <path class="cls-42" d="M1012.57,602.59a4.35,4.35,0,0,1,0,6.84,6.39,6.39,0,0,1-8,0,4.34,4.34,0,0,1,0-6.83A6.37,6.37,0,0,1,1012.57,602.59Z" transform="translate(-341.02 -23.85)"/>
    </g>
  </g>
  <g id="Brick_left">
    <g id="Brick_left-2" data-name="Brick_left">
      <polygon class="cls-43" points="115.88 484.92 95.34 473.56 93.53 465.1 114.07 476.46 115.88 484.92"/>
    </g>
    <g id="Brick_left-3" data-name="Brick_left">
      <polygon class="cls-43" points="34.42 355.77 13.88 344.42 12.07 335.96 32.61 347.31 34.42 355.77"/>
    </g>
    <g id="Brick_left-4" data-name="Brick_left">
      <polygon class="cls-43" points="56.77 415.52 36.23 404.16 34.42 395.7 54.96 407.06 56.77 415.52"/>
    </g>
    <g id="Brick_left-5" data-name="Brick_left">
      <polygon class="cls-43" points="34.42 520.02 13.88 508.66 12.07 500.2 32.61 511.56 34.42 520.02"/>
    </g>
    <g id="Brick_left-6" data-name="Brick_left">
      <polygon class="cls-43" points="127.05 639.33 106.51 627.98 104.7 619.52 125.25 630.87 127.05 639.33"/>
    </g>
    <g id="Brick_left-7" data-name="Brick_left">
      <polygon class="cls-43" points="115.88 557.54 95.34 546.19 93.53 537.73 114.07 549.08 115.88 557.54"/>
    </g>
    <g id="Brick_left-8" data-name="Brick_left">
      <polygon class="cls-43" points="56.77 477.49 36.23 466.13 34.42 457.68 54.96 469.03 56.77 477.49"/>
    </g>
    <g id="Brick_left-9" data-name="Brick_left">
      <polygon class="cls-43" points="49.26 578.54 28.71 567.18 26.91 558.72 47.45 570.08 49.26 578.54"/>
    </g>
    <g id="Brick_left-10" data-name="Brick_left">
      <polygon class="cls-43" points="30.48 655.99 9.93 644.63 8.12 636.17 28.67 647.53 30.48 655.99"/>
    </g>
    <g id="Brick_left-11" data-name="Brick_left">
      <polygon class="cls-43" points="121.59 704.01 101.05 692.65 99.24 684.19 119.78 695.55 121.59 704.01"/>
    </g>
    <g id="Brick_left-12" data-name="Brick_left">
      <polygon class="cls-43" points="78.76 639.33 58.22 627.98 56.41 619.52 76.96 630.87 78.76 639.33"/>
    </g>
    <g id="Brick_left-13" data-name="Brick_left">
      <polygon class="cls-43" points="138.23 591.96 117.69 580.61 115.88 572.15 136.42 583.5 138.23 591.96"/>
    </g>
    <g id="Brick_left-14" data-name="Brick_left">
      <polygon class="cls-43" points="104.7 516.12 84.16 504.76 82.35 496.31 102.89 507.66 104.7 516.12"/>
    </g>
    <g id="Brick_left-15" data-name="Brick_left">
      <polygon class="cls-43" points="88.52 395.78 67.98 384.43 66.17 375.97 86.71 387.32 88.52 395.78"/>
    </g>
    <g id="Brick_left-16" data-name="Brick_left">
      <polygon class="cls-43" points="30.48 435.72 9.93 424.37 8.12 415.91 28.67 427.26 30.48 435.72"/>
    </g>
    <g id="Brick_left-17" data-name="Brick_left">
      <polygon class="cls-43" points="60.43 549.95 39.89 538.59 38.08 530.13 58.62 541.49 60.43 549.95"/>
    </g>
    <g id="Brick_left-18" data-name="Brick_left">
      <polygon class="cls-43" points="143.94 437.48 123.4 426.12 121.59 417.66 142.13 429.02 143.94 437.48"/>
    </g>
  </g>
</svg>
